<?xml version="1.0" encoding="UTF-8" standalone="no"?>
<!-- Created with Inkscape (http://www.inkscape.org/) -->

<svg
   xmlns:dc="http://purl.org/dc/elements/1.1/"
   xmlns:cc="http://creativecommons.org/ns#"
   xmlns:rdf="http://www.w3.org/1999/02/22-rdf-syntax-ns#"
   xmlns:svg="http://www.w3.org/2000/svg"
   xmlns="http://www.w3.org/2000/svg"
   version="1.1"
   width="573.87775"
   height="246.63275"
   id="svg2">
  <defs
     id="defs4" />
  <metadata
     id="metadata7">
    <rdf:RDF>
      <cc:Work
         rdf:about="">
        <dc:format>image/svg+xml</dc:format>
        <dc:type
           rdf:resource="http://purl.org/dc/dcmitype/StillImage" />
        <dc:title></dc:title>
      </cc:Work>
    </rdf:RDF>
  </metadata>
  <g
     transform="translate(-83.531006,-93.877697)"
     id="layer1">
    <path
       d="m 311.47606,339.9113 c -16.51573,-2.39457 -28.12576,-7.22083 -40.62738,-16.88868 -14.03343,-10.85242 -23.52973,-25.70618 -28.3837,-44.39668 -1.59158,-6.12847 -1.71948,-7.49395 -1.71499,-18.31053 0.006,-12.76657 0.61519,-16.71343 4.13514,-26.75987 10.59427,-30.23757 38.4002,-51.28151 70.43723,-53.30795 l 6.30697,-0.39894 0.6537,-2.52089 c 2.73246,-10.53718 8.54057,-20.69377 16.23264,-28.38585 8.53111,-8.53111 18.75946,-13.99614 31.70907,-16.94223 4.56996,-1.03969 18.30856,-1.06211 23.99744,-0.0392 l 4.61961,0.83068 4.60793,-4.43382 c 15.89369,-15.29313 36.18387,-26.43101 57.01815,-31.29891 18.44602,-4.3099 41.11923,-4.2347 58.54256,0.19416 13.28064,3.37581 26.90123,9.22121 37.48835,16.08848 22.51483,14.60404 39.97992,36.65119 48.99695,61.85145 l 1.6788,4.69187 4.22271,1.65673 c 10.51792,4.12655 19.56663,12.46184 24.74488,22.79384 5.42794,10.83019 6.18528,25.66122 1.91557,37.5109 -0.85625,2.37634 -1.69042,4.7426 -1.85375,5.25837 -0.19255,0.60796 1.09051,2.0496 3.64838,4.09933 6.90497,5.53328 13.6364,15.98843 16.1645,25.10621 1.56788,5.65488 1.87676,18.20352 0.59038,23.98552 -2.28222,10.25813 -7.09333,18.76432 -14.70003,25.98994 -8.82872,8.38638 -18.59312,12.6124 -31.63963,13.69353 -9.06102,0.75086 -293.59046,0.68659 -298.79148,-0.0675 z m 81.45269,-38.40402 c 5.54997,-1.30823 10.68767,-4.24007 14.23852,-8.12527 1.67391,-1.83152 3.04347,-3.58456 3.04347,-3.89564 0,-0.31107 0.27683,-0.56559 0.61517,-0.56559 0.33835,0 0.61517,0.92828 0.61517,2.06285 0,1.13457 0.17786,3.76442 0.39523,5.84411 l 0.39521,3.78126 11.29733,0 11.29733,0 -0.15812,-41.37014 -0.15813,-41.37014 -13.03656,-0.16592 -13.03656,-0.16593 -0.18958,26.61821 c -0.18427,25.8727 -0.22661,26.68735 -1.51187,29.08695 -2.94453,5.49751 -6.54535,7.68288 -12.65305,7.67925 -4.41713,-0.002 -6.78963,-1.13298 -9.30796,-4.43468 -3.08711,-4.04742 -3.45752,-7.72998 -3.46747,-34.47248 l -0.009,-24.45298 -13.26424,0 -13.26425,0 0.22185,29.06675 c 0.21072,27.60882 0.28909,29.30818 1.56258,33.88015 3.17734,11.40698 9.59222,18.25632 19.70761,21.04231 3.97004,1.09344 11.93323,1.07285 16.66742,-0.0431 z m 117.33033,0.0938 c 11.41331,-2.44993 20.78689,-10.15122 26.00131,-21.36245 3.57678,-7.6903 4.64194,-13.27906 4.55908,-23.92186 -0.0603,-7.73577 -0.28679,-9.65496 -1.70691,-14.45648 -5.18754,-17.53927 -18.38181,-27.61231 -34.7809,-26.55309 -8.43595,0.54487 -15.06649,3.31625 -20.1884,8.43816 l -2.57287,2.57286 0,-23.4488 0,-23.44881 -12.93786,0 c -9.79784,0 -13.00264,0.18663 -13.20476,0.76896 -0.14678,0.42293 -0.34572,27.69037 -0.44207,60.59431 l -0.17518,59.82535 10.83357,-1.3e-4 10.83357,-1.3e-4 0.38793,-3.22964 c 0.21336,-1.7763 0.39909,-4.47536 0.41276,-5.9979 l 0.0249,-2.76826 1.32279,1.8455 c 2.44415,3.40997 6.98955,7.45344 10.05418,8.94393 5.98757,2.91206 14.30631,3.75958 21.57893,2.19848 z m -19.15357,-20.91674 c -2.84565,-1.24313 -5.70025,-3.9109 -7.54788,-7.05387 -1.61703,-2.75069 -1.68766,-3.23919 -1.89431,-13.10209 -0.27655,-13.19865 0.42208,-16.03906 5.05449,-20.54978 5.20456,-5.06786 11.68514,-5.92674 18.15398,-2.40596 6.33577,3.44836 9.39054,10.35392 9.38024,21.20481 -0.009,9.14975 -1.52095,13.82691 -5.8801,18.18606 -2.05829,2.05829 -4.10788,3.4769 -5.63662,3.90136 -3.24901,0.90209 -9.36905,0.80709 -11.6298,-0.18053 z m 119.34289,20.85149 c 6.20687,-0.90414 8.66109,-1.45943 13.9951,-3.16645 3.45744,-1.10647 3.43074,-0.94623 1.67308,-10.0638 -1.68846,-8.75847 -1.70107,-8.7909 -3.2716,-8.42041 -19.54466,4.61066 -32.71882,3.72734 -40.02021,-2.68331 -2.48024,-2.17771 -4.00137,-4.70323 -4.70561,-7.81274 l -0.45277,-1.9993 26.95838,0 26.95839,0 0.43375,-3.4717 c 0.69687,-5.57738 -0.10009,-16.61086 -1.57028,-21.7402 -4.76147,-16.61195 -16.34031,-25.98706 -33.24621,-26.91862 -12.40391,-0.6835 -23.30883,3.3035 -31.3518,11.46269 -6.68726,6.78382 -10.50309,14.07121 -12.3382,23.5631 -0.93672,4.84505 -0.78521,15.5789 0.2938,20.81188 2.74458,13.31079 12.39209,24.223 25.27054,28.5832 8.09514,2.74074 20.32981,3.46439 31.37364,1.85566 z m -32.5149,-53.98522 c 1.19552,-6.53205 5.68835,-12.42798 10.58928,-13.89633 9.4992,-2.84604 17.97519,2.77418 18.98837,12.5907 l 0.34111,3.30493 -15.14233,0 -15.14233,0 0.3659,-1.9993 z m -295.67798,25.68332 0.30759,-27.06745 1.72572,-2.93583 c 2.49875,-4.25094 5.76855,-6.20894 10.81726,-6.47754 5.79961,-0.30854 8.92739,1.42354 11.44862,6.34 l 1.84551,3.59878 0.17819,26.95854 0.1782,26.95854 13.20174,0 13.20173,0 0,-27.62851 c 0,-30.94973 -0.28666,-33.96944 -3.95887,-41.70206 -5.05766,-10.64999 -14.00141,-16.17797 -26.17443,-16.17797 -9.16794,0 -16.86552,3.32616 -23.38643,10.10539 l -2.76826,2.87792 -0.61517,-5.10752 -0.61517,-5.10753 -11.53906,-0.16738 -11.53906,-0.16739 0.35513,5.39633 c 0.19532,2.96797 0.45291,6.50362 0.57243,7.857 0.11951,1.35337 0.23862,17.62241 0.26467,36.15343 l 0.0474,33.69276 13.07234,-0.16603 13.07235,-0.16603 0.30759,-27.06745 z M 158.88106,303.377 c -3.78343,-1.91256 -6.10887,-5.12215 -7.42286,-10.2451 -1.21768,-4.74747 -0.84659,-10.85363 0.98255,-16.16776 0.69135,-2.00852 7.51794,-15.7034 15.17021,-30.43309 l 13.91322,-26.78123 -0.29086,-9.24534 c -0.24659,-7.83795 -0.50287,-9.73402 -1.68356,-12.4556 -0.76599,-1.76565 -1.7776,-3.52971 -2.24803,-3.92014 -1.31056,-1.08766 -1.08936,-4.69686 0.33456,-5.45892 0.74037,-0.39623 7.81207,-0.63681 18.71872,-0.63681 21.85511,0 21.56693,-0.14337 17.16605,8.54012 l -2.30169,4.54151 0.14977,9.33188 0.14977,9.33186 14.76633,29.0232 c 10.73066,21.09112 15.03379,30.16119 15.74501,33.18707 1.16476,4.95551 0.821,10.67282 -0.87088,14.48411 -1.4512,3.26913 -5.4669,6.93086 -8.53523,7.78289 -1.52649,0.42387 -14.33042,0.65387 -36.52534,0.6561 l -34.1749,0.004 -3.04284,-1.53818 z m 74.12298,-6.35276 c 3.30737,-1.77376 4.45279,-4.48464 4.20374,-9.94897 -0.15699,-3.44441 -0.65489,-5.58823 -1.96447,-8.45858 l -1.75419,-3.84481 -5.74591,0 c -5.51767,0 -5.78779,-0.0639 -6.80006,-1.6088 -0.94463,-1.44169 -0.95992,-1.77719 -0.14724,-3.22964 0.80625,-1.44098 1.33124,-1.64116 4.73096,-1.80398 2.10325,-0.10073 3.82409,-0.38865 3.82409,-0.63981 0,-0.25116 -1.07536,-2.52177 -2.38967,-5.04579 l -2.38968,-4.58913 -6.04783,-0.30759 c -5.75016,-0.29244 -6.09249,-0.38736 -6.95507,-1.92841 -0.8131,-1.45266 -0.79785,-1.78776 0.1469,-3.22964 0.95721,-1.46087 1.42052,-1.60881 5.03855,-1.60881 2.19143,0 3.98443,-0.14456 3.98443,-0.32124 0,-0.17668 -1.1104,-2.52971 -2.46755,-5.22894 l -2.46754,-4.9077 -6.02179,0 c -6.69158,0 -7.4982,-0.37488 -7.4982,-3.48482 0,-2.58458 1.29869,-3.28204 6.11125,-3.28204 2.0523,0 3.73145,-0.12094 3.73145,-0.26876 0,-0.14781 -1.38413,-3.09915 -3.07584,-6.55853 -2.06447,-4.22162 -3.07585,-7.06624 -3.07585,-8.6512 l 0,-2.36142 -3.87557,0 c -4.21941,0 -5.35197,-0.63414 -5.35197,-2.99665 0,-2.68214 1.62535,-3.77022 5.63187,-3.77022 l 3.59567,0 0.0151,-3.22963 c 0.0134,-2.8699 0.62644,-6.67174 1.5872,-9.84271 0.30266,-0.99905 -0.51826,-1.07655 -11.40352,-1.07655 -6.45132,0 -11.72967,0.1249 -11.72967,0.27757 0,0.15267 0.41523,1.87178 0.92275,3.82026 0.63818,2.45014 0.92275,6.64509 0.92275,13.60252 l 0,10.05983 -4.57936,8.72738 c -7.37943,14.06377 -17.9751,34.62793 -21.7199,42.15419 -3.26918,6.57038 -3.48515,7.2857 -3.72702,12.34473 -0.21895,4.57944 -0.0648,5.74647 1.04684,7.92546 2.33582,4.5786 0.61254,4.38434 39.13933,4.41188 32.22572,0.023 34.59493,-0.0482 36.55505,-1.09945 z m -118.99662,3.55199 c -15.082061,-3.80745 -25.545751,-14.1029 -29.242841,-28.77265 -1.65298,-6.55892 -1.64351,-17.26091 0.0211,-23.84695 3.92553,-15.53123 14.19798,-25.81893 30.459551,-30.50479 4.26055,-1.2277 6.30224,-1.41661 15.37103,-1.42219 8.20069,-0.005 11.42169,0.24052 14.92334,1.13772 2.45599,0.62928 4.56019,1.32135 4.67597,1.53792 0.11579,0.21658 -0.56375,3.8541 -1.51008,8.08339 -0.94633,4.22928 -1.73559,8.31247 -1.75392,9.07374 -0.0393,1.63217 -0.56417,1.68025 -4.64709,0.42573 -1.83675,-0.56437 -5.55404,-0.96139 -9.22754,-0.98554 -7.41824,-0.0488 -11.61646,1.29469 -15.94083,5.10115 -3.66997,3.23043 -5.60694,6.59911 -6.85865,11.92817 -2.75313,11.72119 2.29647,23.22011 12.16229,27.69588 5.22987,2.3726 13.37324,2.77563 20.17231,0.99836 2.53757,-0.66332 4.65373,-1.16538 4.70256,-1.1157 0.33107,0.33686 2.83484,18.28754 2.58553,18.53685 -0.17233,0.17233 -2.50552,0.90458 -5.18484,1.62721 -7.29193,1.96669 -23.83424,2.23695 -30.7079,0.5017 z"
       id="path3104"
       style="fill:#3f97ff;fill-opacity:1" />
  </g>
</svg>
