<?xml version="1.0" encoding="UTF-8" standalone="no"?>
<!-- Created with Inkscape (http://www.inkscape.org/) -->

<svg
   xmlns:dc="http://purl.org/dc/elements/1.1/"
   xmlns:cc="http://creativecommons.org/ns#"
   xmlns:rdf="http://www.w3.org/1999/02/22-rdf-syntax-ns#"
   xmlns:svg="http://www.w3.org/2000/svg"
   xmlns="http://www.w3.org/2000/svg"
   xmlns:sodipodi="http://sodipodi.sourceforge.net/DTD/sodipodi-0.dtd"
   xmlns:inkscape="http://www.inkscape.org/namespaces/inkscape"
   width="210mm"
   height="297mm"
   id="svg2"
   version="1.1"
   inkscape:version="0.48.2 r9819"
   sodipodi:docname="Documento nuevo 1">
  <defs
     id="defs4">
    <clipPath
       id="clipPath3158"
       clipPathUnits="userSpaceOnUse">
      <path
         id="path3160"
         d="M 0,792 1224,792 1224,0 0,0 0,792 z" />
    </clipPath>
    <clipPath
       id="clipPath3134"
       clipPathUnits="userSpaceOnUse">
      <path
         id="path3136"
         d="m 190.258,650.291 843.482,0 0,-367.503 -843.482,0 0,367.503 z" />
    </clipPath>
    <mask
       id="mask3106"
       height="1"
       width="1"
       y="0"
       x="0"
       maskUnits="userSpaceOnUse">
      <g
         id="g3108">
        <g
           id="g3110"
           clip-path="url(#clipPath3088)">
          <g
             id="g3112">
            <g
               id="g3114" />
            <g
               id="g3116">
              <g
                 id="g3118"
                 clip-path="url(#clipPath3092)">
                <g
                   id="g3120">
                  <g
                     id="g3122">
                    <g
                       id="g3124">
                      <g
                         id="g3126">
                        <path
                           id="path3128"
                           style="fill:url(#linearGradient3100);stroke:none"
                           d="m 1078.198,269.296 -901.519,0 0,481.757 901.519,0 0,-481.757 z" />
                      </g>
                    </g>
                  </g>
                </g>
              </g>
            </g>
          </g>
        </g>
      </g>
    </mask>
    <linearGradient
       id="linearGradient3100"
       spreadMethod="pad"
       gradientTransform="matrix(-2.11e-5,-481.75781,-481.75781,2.11e-5,627.43945,751.05322)"
       gradientUnits="userSpaceOnUse"
       y2="0"
       x2="1"
       y1="0"
       x1="0">
      <stop
         id="stop3102"
         offset="0"
         style="stop-opacity:1;stop-color:#ffffff" />
      <stop
         id="stop3104"
         offset="1"
         style="stop-opacity:1;stop-color:#231f20" />
    </linearGradient>
    <clipPath
       id="clipPath3092"
       clipPathUnits="userSpaceOnUse">
      <path
         id="path3094"
         d="m 176.68,751.053 901.52,0 0,-481.757 -901.52,0 0,481.757 z" />
    </clipPath>
    <clipPath
       id="clipPath3088"
       clipPathUnits="userSpaceOnUse">
      <path
         id="path3090"
         d="m 176.68,751.053 901.52,0 0,-481.757 -901.52,0 0,481.757 z" />
    </clipPath>
    <clipPath
       id="clipPath3076"
       clipPathUnits="userSpaceOnUse">
      <path
         id="path3078"
         d="m -9425.67,726.562 16383,0 0,-307.066 -16383,0 0,307.066 z" />
    </clipPath>
    <mask
       id="mask3044"
       height="1"
       width="1"
       y="0"
       x="0"
       maskUnits="userSpaceOnUse">
      <g
         id="g3046">
        <g
           id="g3048"
           clip-path="url(#clipPath3026)">
          <path
             id="path3050"
             style="fill:#000000;fill-opacity:1;fill-rule:nonzero;stroke:none"
             d="m -9425.675,726.562 16383.001,0 0,-319.284 -16383.001,0 0,319.284 z" />
          <g
             id="g3052">
            <g
               id="g3054" />
            <g
               id="g3056">
              <g
                 id="g3058"
                 clip-path="url(#clipPath3030)">
                <g
                   id="g3060">
                  <g
                     id="g3062">
                    <g
                       id="g3064">
                      <g
                         id="g3066">
                        <path
                           id="path3068"
                           style="fill:url(#linearGradient3038);stroke:none"
                           d="m -827.745,381.32 -331.578,0 0,372.864 331.578,0 0,-372.864 z" />
                      </g>
                    </g>
                  </g>
                </g>
                <path
                   id="path3070"
                   style="fill:none;stroke:#231f20;stroke-opacity:1;stroke-width:0.593;stroke-linecap:butt;stroke-linejoin:miter;stroke-miterlimit:10;stroke-dasharray:none"
                   d="m -827.745,381.32 -331.578,0 0,372.864 331.578,0 0,-372.864 z" />
              </g>
            </g>
          </g>
        </g>
      </g>
    </mask>
    <linearGradient
       id="linearGradient3038"
       spreadMethod="pad"
       gradientTransform="matrix(-1.63e-5,372.86377,372.86377,1.63e-5,-993.53418,381.32031)"
       gradientUnits="userSpaceOnUse"
       y2="0"
       x2="1"
       y1="0"
       x1="0">
      <stop
         id="stop3040"
         offset="0"
         style="stop-opacity:1;stop-color:#ffffff" />
      <stop
         id="stop3042"
         offset="1"
         style="stop-opacity:1;stop-color:#231f20" />
    </linearGradient>
    <clipPath
       id="clipPath3030"
       clipPathUnits="userSpaceOnUse">
      <path
         id="path3032"
         d="m -9425.67,726.562 16383,0 0,-319.285 -16383,0 0,319.285 z" />
    </clipPath>
    <clipPath
       id="clipPath3026"
       clipPathUnits="userSpaceOnUse">
      <path
         id="path3028"
         d="m -9425.67,726.562 16383,0 0,-307.066 -16383,0 0,307.066 z" />
    </clipPath>
    <clipPath
       id="clipPath3018"
       clipPathUnits="userSpaceOnUse">
      <path
         id="path3020"
         d="M 0,792 1224,792 1224,0 0,0 0,792 z" />
    </clipPath>
  </defs>
  <sodipodi:namedview
     id="base"
     pagecolor="#ffffff"
     bordercolor="#666666"
     borderopacity="1.0"
     inkscape:pageopacity="0.0"
     inkscape:pageshadow="2"
     inkscape:zoom="0.49497475"
     inkscape:cx="235.85657"
     inkscape:cy="320.65394"
     inkscape:document-units="px"
     inkscape:current-layer="layer1"
     showgrid="false"
     inkscape:window-width="1062"
     inkscape:window-height="781"
     inkscape:window-x="47"
     inkscape:window-y="0"
     inkscape:window-maximized="0" />
  <metadata
     id="metadata7">
    <rdf:RDF>
      <cc:Work
         rdf:about="">
        <dc:format>image/svg+xml</dc:format>
        <dc:type
           rdf:resource="http://purl.org/dc/dcmitype/StillImage" />
        <dc:title></dc:title>
      </cc:Work>
    </rdf:RDF>
  </metadata>
  <g
     inkscape:label="Capa 1"
     inkscape:groupmode="layer"
     id="layer1">
    <g
       transform="matrix(1.25,0,0,-1.25,-414.99887,1016.5762)"
       inkscape:label="CANUBE2"
       id="g3012">
      <g
         id="g3014">
        <g
           clip-path="url(#clipPath3018)"
           id="g3016">
          <g
             id="g3022">
            <g
               id="g3024" />
            <g
               mask="url(#mask3044)"
               id="g3072">
              <g
                 id="g3074" />
              <g
                 id="g3080">
                <g
                   id="g3082"
                   clip-path="url(#clipPath3076)" />
              </g>
            </g>
          </g>
          <g
             id="g3084">
            <g
               id="g3086" />
            <g
               mask="url(#mask3106)"
               id="g3130">
              <g
                 id="g3132" />
              <g
                 id="g3138">
                <g
                   id="g3140"
                   clip-path="url(#clipPath3134)">
                  <g
                     id="g3142"
                     transform="translate(927.0752,497.1211)">
                    <path
                       id="path3144"
                       style="fill:#27d6f2;fill-opacity:1;fill-rule:nonzero;stroke:none"
                       d="m 0,0 c -18.52,0 -35.934,-4.725 -51.115,-13.027 0.156,2.348 0.242,4.717 0.242,7.105 0,58.911 -47.756,106.667 -106.665,106.667 -21.22,0 -40.99,-6.199 -57.604,-16.88 -15.143,40.482 -54.17,69.305 -99.934,69.305 -45.766,0 -84.789,-28.823 -99.933,-69.304 -16.615,10.681 -36.386,16.879 -57.605,16.879 -58.909,0 -106.665,-47.756 -106.665,-106.667 0,-2.003 0.062,-3.993 0.167,-5.972 -15.16,8.28 -32.548,12.987 -51.038,12.987 -58.912,0 -106.667,-47.756 -106.667,-106.667 0,-24.187 8.342,-47.958 23.506,-66.808 14.949,-18.58 36.04,-31.865 59.297,-37.18 14.084,-3.218 29.131,-4.791 43.58,-4.771 8.162,0.014 16.324,0 24.484,0 l 34.829,0 42.304,0 48.175,0 52.453,0 55.132,0 56.211,0 55.698,0 53.58,0 49.861,0 44.553,0 37.642,0 29.135,0 19.023,0 c 7.833,0 16.292,1.08 24.03,2.293 6.011,0.947 11.938,2.406 17.698,4.361 11.255,3.832 21.844,9.569 31.217,16.887 18.776,14.66 32.358,35.533 38.024,58.684 2.036,8.32 3.052,16.875 3.052,25.442 C 106.667,-47.758 58.911,0 0,0"
                       inkscape:connector-curvature="0" />
                  </g>
                </g>
              </g>
            </g>
          </g>
        </g>
      </g>
      <text
         id="text3146"
         transform="matrix(1,0,0,-1,285.7314,150.5576)">
        <tspan
           id="tspan3148"
           sodipodi:role="line"
           y="0"
           x="0 110.71365"
           style="font-size:155.4967041px;font-variant:normal;font-weight:200;font-stretch:normal;writing-mode:lr-tb;fill:#231f20;fill-opacity:1;fill-rule:nonzero;stroke:none;font-family:Avenir Next Ultra Light;-inkscape-font-specification:AvenirNext-UltraLight">CA</tspan>
      </text>
      <text
         id="text3150"
         transform="matrix(1,0,0,-1,500.00585,150.5576)">
        <tspan
           id="tspan3152"
           sodipodi:role="line"
           y="0"
           x="0 118.79948 229.20213 328.09802"
           style="font-size:155.4967041px;font-variant:normal;font-weight:normal;font-stretch:normal;writing-mode:lr-tb;fill:#231f20;fill-opacity:1;fill-rule:nonzero;stroke:none;font-family:Avenir Next;-inkscape-font-specification:AvenirNext-Regular">NUBE</tspan>
      </text>
      <g
         id="g3154">
        <g
           clip-path="url(#clipPath3158)"
           id="g3156">
          <g
             transform="translate(432.1973,530.8843)"
             id="g3162">
            <path
               id="path3164"
               style="fill:#231f20;fill-opacity:1;fill-rule:nonzero;stroke:none"
               d="m 0,0 c 0,-12.358 -10.019,-22.377 -22.38,-22.377 -12.357,0 -22.377,10.019 -22.377,22.377 0,12.36 10.02,22.379 22.377,22.379 C -10.019,22.379 0,12.36 0,0"
               inkscape:connector-curvature="0" />
          </g>
          <g
             transform="translate(564.165,370.8877)"
             id="g3166">
            <path
               id="path3168"
               style="fill:#231f20;fill-opacity:1;fill-rule:nonzero;stroke:none"
               d="m 0,0 c 0,-12.362 -10.019,-22.378 -22.379,-22.378 -12.358,0 -22.377,10.016 -22.377,22.378 0,12.358 10.019,22.376 22.377,22.376 C -10.019,22.376 0,12.358 0,0"
               inkscape:connector-curvature="0" />
          </g>
          <g
             transform="translate(733.0068,431.7676)"
             id="g3170">
            <path
               id="path3172"
               style="fill:#231f20;fill-opacity:1;fill-rule:nonzero;stroke:none"
               d="m 0,0 c 0,-20.01 -16.222,-36.231 -36.234,-36.231 -20.01,0 -36.233,16.221 -36.233,36.231 0,20.012 16.223,36.234 36.233,36.234 C -16.222,36.234 0,20.012 0,0"
               inkscape:connector-curvature="0" />
          </g>
          <g
             transform="translate(898.8174,656.0835)"
             id="g3174">
            <path
               id="path3176"
               style="fill:#231f20;fill-opacity:1;fill-rule:nonzero;stroke:none"
               d="m 0,0 c 0,-12.358 -10.019,-22.377 -22.379,-22.377 -12.358,0 -22.377,10.019 -22.377,22.377 0,12.36 10.019,22.379 22.377,22.379 C -10.019,22.379 0,12.36 0,0"
               inkscape:connector-curvature="0" />
          </g>
          <g
             transform="translate(409.8174,530.8843)"
             id="g3178">
            <path
               id="path3180"
               style="fill:none;stroke:#231f20;stroke-width:4.26300001;stroke-linecap:butt;stroke-linejoin:miter;stroke-miterlimit:10;stroke-opacity:1;stroke-dasharray:none"
               d="m 0,0 131.969,-159.997 154.986,60.88 179.666,224.316"
               inkscape:connector-curvature="0" />
          </g>
          <g
             transform="translate(682.9189,513.4834)"
             id="g3182">
            <path
               id="path3184"
               style="fill:#231f20;fill-opacity:1;fill-rule:nonzero;stroke:none"
               d="m 0,0 c 0,-12.358 -10.018,-22.377 -22.379,-22.377 -12.357,0 -22.377,10.019 -22.377,22.377 0,12.36 10.02,22.379 22.377,22.379 C -10.018,22.379 0,12.36 0,0"
               inkscape:connector-curvature="0" />
          </g>
          <g
             transform="translate(842.6895,359.2969)"
             id="g3186">
            <path
               id="path3188"
               style="fill:#231f20;fill-opacity:1;fill-rule:nonzero;stroke:none"
               d="m 0,0 c 0,-12.361 -10.019,-22.377 -22.379,-22.377 -12.358,0 -22.377,10.016 -22.377,22.377 0,12.36 10.019,22.377 22.377,22.377 C -10.019,22.377 0,12.36 0,0"
               inkscape:connector-curvature="0" />
          </g>
          <g
             transform="translate(660.54,513.4844)"
             id="g3190">
            <path
               id="path3192"
               style="fill:none;stroke:#231f20;stroke-width:4.26300001;stroke-linecap:butt;stroke-linejoin:miter;stroke-miterlimit:10;stroke-opacity:1;stroke-dasharray:none"
               d="m 0,0 36.232,-81.717 123.539,-72.47"
               inkscape:connector-curvature="0" />
          </g>
        </g>
      </g>
      <text
         id="text3194"
         transform="matrix(1,0,0,-1,311,97)">
        <tspan
           id="tspan3196"
           sodipodi:role="line"
           y="0"
           x="0 33.264 48.599998 75.816002 103.608 128.088 143.424 169.056 184.608 215.784 245.52 260.85599 288.07199 306.25201 324.396 350.02802 366.228 393.444 421.23599 437.436 452.772 478.40399 494.604 529.776 557.56799 587.30402"
           style="font-size:36px;font-variant:normal;font-weight:200;font-stretch:normal;writing-mode:lr-tb;fill:#000000;fill-opacity:1;fill-rule:nonzero;stroke:none;font-family:Avenir Next Ultra Light;-inkscape-font-specification:AvenirNext-UltraLight">Ciencia Abierta en la Nube</tspan>
      </text>
    </g>
  </g>
</svg>
