<?xml version="1.0" encoding="UTF-8" standalone="no"?>
<!-- Created with Inkscape (http://www.inkscape.org/) -->

<svg
   xmlns:dc="http://purl.org/dc/elements/1.1/"
   xmlns:cc="http://creativecommons.org/ns#"
   xmlns:rdf="http://www.w3.org/1999/02/22-rdf-syntax-ns#"
   xmlns:svg="http://www.w3.org/2000/svg"
   xmlns="http://www.w3.org/2000/svg"
   xmlns:sodipodi="http://sodipodi.sourceforge.net/DTD/sodipodi-0.dtd"
   xmlns:inkscape="http://www.inkscape.org/namespaces/inkscape"
   id="svg3004"
   version="1.1"
   inkscape:version="0.48.3.1 r9886"
   width="608.15375"
   height="261.76375"
   xml:space="preserve"
   sodipodi:docname="Canube.juandesant.pdf"><metadata
     id="metadata3010"><rdf:RDF><cc:Work
         rdf:about=""><dc:format>image/svg+xml</dc:format><dc:type
           rdf:resource="http://purl.org/dc/dcmitype/StillImage" /><dc:title></dc:title></cc:Work></rdf:RDF></metadata><defs
     id="defs3008"><clipPath
       clipPathUnits="userSpaceOnUse"
       id="clipPath3018"><path
         d="m 0,209.411 486.523,0 L 486.523,0 0,0 0,209.411 z"
         id="path3020" /></clipPath></defs><sodipodi:namedview
     pagecolor="#ffffff"
     bordercolor="#666666"
     borderopacity="1"
     objecttolerance="10"
     gridtolerance="10"
     guidetolerance="10"
     inkscape:pageopacity="0"
     inkscape:pageshadow="2"
     inkscape:window-width="1360"
     inkscape:window-height="709"
     id="namedview3006"
     showgrid="false"
     inkscape:zoom="0.68568187"
     inkscape:cx="304.07687"
     inkscape:cy="304.86658"
     inkscape:window-x="0"
     inkscape:window-y="27"
     inkscape:window-maximized="1"
     inkscape:current-layer="g3012" /><g
     id="g3012"
     inkscape:groupmode="layer"
     inkscape:label="Canube.juandesant"
     transform="matrix(1.25,0,0,-1.25,0,261.76375)"><g
       id="g3022"
       transform="translate(463.9971,62.1943)"><path
         d="m 0,0 -45.488,0 c 0.577,-9 9.675,-13.383 19.927,-13.383 7.51,0 13.576,1.035 19.497,3.057 l 2.887,-14.862 c -7.22,-3.033 -16.029,-4.471 -25.56,-4.471 -23.972,0 -37.691,13.866 -37.691,35.961 0,17.907 11.119,37.692 35.669,37.692 C -7.942,43.994 0.723,26.185 0.723,8.711 0.723,4.956 0.289,2 0,0 m -108.74,-29.604 c -8.233,0 -16.319,2.604 -21.229,11.604 l -0.289,0 -0.866,-10 -18.629,0 c 0.288,4 0.989,12.933 0.989,20.875 l 0,81.125 22,0 0,-40 -0.173,0 c 4.189,6 11.553,9.98 21.373,9.98 16.896,0 29.17,-13.902 29.027,-35.564 0,-25.416 -16.03,-38.02 -32.203,-38.02 m -76.54,1.604 -1.011,10 -0.434,0 c -2.744,-5 -9.439,-11.676 -22.147,-11.676 -14.441,0 -24.892,8.832 -24.892,30.638 l 0,41.038 22,0 0,-37.572 c 0,-10.253 3.35,-16.463 11.148,-16.463 6.065,0 9.68,4.187 10.98,7.653 0.577,1.3 0.872,2.889 0.872,4.766 l 0,41.616 22,0 0,-47.537 c 0,-9.242 0.256,-16.463 0.545,-22.463 l -19.061,0 z m -65.484,0 -22,0 0,38.926 c 0,9.097 -3.265,15.307 -11.208,15.307 -6.065,0 -9.578,-4.188 -11.166,-8.231 -0.578,-1.444 -0.626,-3.466 -0.626,-5.487 l 0,-40.515 -22,0 0,47.879 c 0,8.809 -0.521,16.121 -0.809,22.121 l 19.062,0 1.011,-9 0.433,0 c 2.888,4 10.077,11.203 21.919,11.203 14.441,0 25.384,-9.883 25.384,-30.678 l 0,-41.525 z M 3.674,16.505 c 3.112,5.697 4.633,12.232 4.633,19.183 0,18.223 -12.071,33.596 -29.071,38.461 l 0,-0.149 0.361,0 c -13.401,43 -52.973,73.216 -99.711,73.216 -30.305,0 -57.594,-12.769 -76.695,-33.365 -4.527,1.279 -9.298,1.791 -14.237,1.791 -25.163,0 -46.168,-17.642 -51.159,-41.642 l -1.559,0 0,0.016 c -37,-0.16 -67.395,-30.509 -67.395,-67.932 0,-37.522 30.543,-68.189 68.064,-68.189 2.358,0 4.813,0.105 7.109,0.105 l 129.571,0 c 2.085,0 4.185,-0.194 6.301,-0.194 2.116,0 4.216,0.194 6.301,0.194 l 89.567,0 c 1.326,0 2.667,0.056 4.024,0.056 23.61,0 42.748,19.264 42.748,42.873 0,14.758 -7.478,27.893 -18.852,35.576"
         style="fill:#3f97ff;fill-opacity:1;fill-rule:nonzero;stroke:none"
         id="path3024"
         inkscape:connector-curvature="0" /></g><g
       id="g3026"
       transform="translate(431.9385,91.4912)"><path
         d="m 0,0 c -9.242,0 -12.997,-8.297 -13.574,-14.297 l 25.993,0 C 12.419,-9.297 10.108,0 0,0"
         style="fill:#3f97ff;fill-opacity:1;fill-rule:nonzero;stroke:none"
         id="path3028"
         inkscape:connector-curvature="0" /></g><g
       id="g3030"
       transform="translate(350.0576,89.2939)"><path
         d="m 0,0 c -5.921,0 -11.178,-4.477 -12.622,-10.83 -0.289,-1.3 -0.202,-2.6 -0.202,-4.044 l 0,-10.397 c 0,-1.445 -0.087,-2.745 0.202,-3.9 1.444,-5.776 6.384,-10.397 12.737,-10.397 9.387,0 15.106,7.22 15.106,19.928 C 15.221,-8.664 10.253,0 0,0"
         style="fill:#3f97ff;fill-opacity:1;fill-rule:nonzero;stroke:none"
         id="path3032"
         inkscape:connector-curvature="0" /></g><g
       id="g3034"
       transform="translate(41.4453,89.2939)"><path
         d="m 0,0 c 5.776,0 9.675,-1.011 12.275,-2.166 l 3.466,16.318 C 11.12,15.885 4.766,16.896 -1.011,16.896 -27.293,16.896 -41.445,0 -41.445,-20.65 c 0,-22.095 14.585,-36.103 37.402,-36.103 8.375,0 15.74,1.444 19.639,3.321 l -2.599,16.174 c -3.322,-1.443 -7.365,-2.31 -12.564,-2.31 -10.686,0 -19.35,6.931 -19.35,19.784 C -19.062,-8.231 -11.553,0 0,0"
         style="fill:#3f97ff;fill-opacity:1;fill-rule:nonzero;stroke:none"
         id="path3036"
         inkscape:connector-curvature="0" /></g><g
       id="g3038"
       transform="translate(107.2334,59.6904)"><path
         d="m 0,0 c 0,-1.3 -0.113,-2.6 -0.402,-3.755 -1.444,-4.476 -6.049,-8.087 -11.392,-8.087 -4.91,0 -8.688,2.744 -8.688,8.376 C -20.482,4.91 -11,7.653 0,7.653 L 0,0 z m 21,16.029 c 0,16.751 -7.219,30.615 -30.758,30.615 -12.852,0 -22.454,-3.611 -27.365,-6.354 l 4.08,-14.152 c 4.621,2.888 12.123,5.342 19.343,5.342 10.83,0 12.7,-5.342 12.7,-9.242 l 0,-0.866 c -25,0 -41.274,-8.664 -41.274,-27.004 0,-11.264 8.605,-21.596 22.901,-21.596 8.376,0 15.682,2.732 20.303,8.732 l 0.433,0 1.3,-7 19.784,0 C 21.58,-21.496 21,-15.308 21,-8.665 l 0,24.694 z"
         style="fill:#3f97ff;fill-opacity:1;fill-rule:nonzero;stroke:none"
         id="path3040"
         inkscape:connector-curvature="0" /></g></g></svg>