<?xml version="1.0" encoding="UTF-8" standalone="no"?>
<!-- Created with Inkscape (http://www.inkscape.org/) -->

<svg
   xmlns:dc="http://purl.org/dc/elements/1.1/"
   xmlns:cc="http://creativecommons.org/ns#"
   xmlns:rdf="http://www.w3.org/1999/02/22-rdf-syntax-ns#"
   xmlns:svg="http://www.w3.org/2000/svg"
   xmlns="http://www.w3.org/2000/svg"
   xmlns:xlink="http://www.w3.org/1999/xlink"
   version="1.1"
   width="1054.3523"
   height="727.72815"
   id="svg2">
  <defs
     id="defs4">
    <linearGradient
       id="linearGradient3909">
      <stop
         id="stop3911"
         style="stop-color:#27d6f2;stop-opacity:1"
         offset="0" />
      <stop
         id="stop3913"
         style="stop-color:#000000;stop-opacity:0"
         offset="1" />
    </linearGradient>
    <clipPath
       id="clipPath3158">
      <path
         d="M 0,792 1224,792 1224,0 0,0 0,792 z"
         id="path3160" />
    </clipPath>
    <clipPath
       id="clipPath3134">
      <path
         d="m 190.258,650.291 843.482,0 0,-367.503 -843.482,0 0,367.503 z"
         id="path3136" />
    </clipPath>
    <mask
       id="mask3106">
      <g
         id="g3108">
        <g
           clip-path="url(#clipPath3088)"
           id="g3110">
          <g
             id="g3112">
            <g
               id="g3114" />
            <g
               id="g3116">
              <g
                 clip-path="url(#clipPath3092)"
                 id="g3118">
                <g
                   id="g3120">
                  <g
                     id="g3122">
                    <g
                       id="g3124">
                      <g
                         id="g3126">
                        <path
                           d="m 1078.198,269.296 -901.519,0 0,481.757 901.519,0 0,-481.757 z"
                           id="path3128"
                           style="fill:url(#linearGradient3100);stroke:none" />
                      </g>
                    </g>
                  </g>
                </g>
              </g>
            </g>
          </g>
        </g>
      </g>
    </mask>
    <linearGradient
       x1="0"
       y1="0"
       x2="1"
       y2="0"
       id="linearGradient3100"
       gradientUnits="userSpaceOnUse"
       gradientTransform="matrix(-2.11e-5,-481.75781,-481.75781,2.11e-5,627.43945,751.05322)"
       spreadMethod="pad">
      <stop
         id="stop3102"
         style="stop-color:#ffffff;stop-opacity:1"
         offset="0" />
      <stop
         id="stop3104"
         style="stop-color:#231f20;stop-opacity:1"
         offset="1" />
    </linearGradient>
    <clipPath
       id="clipPath3092">
      <path
         d="m 176.68,751.053 901.52,0 0,-481.757 -901.52,0 0,481.757 z"
         id="path3094" />
    </clipPath>
    <clipPath
       id="clipPath3088">
      <path
         d="m 176.68,751.053 901.52,0 0,-481.757 -901.52,0 0,481.757 z"
         id="path3090" />
    </clipPath>
    <clipPath
       id="clipPath3076">
      <path
         d="m -9425.67,726.562 16383,0 0,-307.066 -16383,0 0,307.066 z"
         id="path3078" />
    </clipPath>
    <mask
       id="mask3044">
      <g
         id="g3046">
        <g
           clip-path="url(#clipPath3026)"
           id="g3048">
          <path
             d="m -9425.675,726.562 16383.001,0 0,-319.284 -16383.001,0 0,319.284 z"
             id="path3050"
             style="fill:#000000;fill-opacity:1;fill-rule:nonzero;stroke:none" />
          <g
             id="g3052">
            <g
               id="g3054" />
            <g
               id="g3056">
              <g
                 clip-path="url(#clipPath3030)"
                 id="g3058">
                <g
                   id="g3060">
                  <g
                     id="g3062">
                    <g
                       id="g3064">
                      <g
                         id="g3066">
                        <path
                           d="m -827.745,381.32 -331.578,0 0,372.864 331.578,0 0,-372.864 z"
                           id="path3068"
                           style="fill:url(#linearGradient3038);stroke:none" />
                      </g>
                    </g>
                  </g>
                </g>
                <path
                   d="m -827.745,381.32 -331.578,0 0,372.864 331.578,0 0,-372.864 z"
                   id="path3070"
                   style="fill:none;stroke:#231f20;stroke-width:0.59299999;stroke-linecap:butt;stroke-linejoin:miter;stroke-miterlimit:10;stroke-opacity:1;stroke-dasharray:none" />
              </g>
            </g>
          </g>
        </g>
      </g>
    </mask>
    <linearGradient
       x1="0"
       y1="0"
       x2="1"
       y2="0"
       id="linearGradient3038"
       gradientUnits="userSpaceOnUse"
       gradientTransform="matrix(-1.63e-5,372.86377,372.86377,1.63e-5,-993.53418,381.32031)"
       spreadMethod="pad">
      <stop
         id="stop3040"
         style="stop-color:#ffffff;stop-opacity:1"
         offset="0" />
      <stop
         id="stop3042"
         style="stop-color:#231f20;stop-opacity:1"
         offset="1" />
    </linearGradient>
    <clipPath
       id="clipPath3030">
      <path
         d="m -9425.67,726.562 16383,0 0,-319.285 -16383,0 0,319.285 z"
         id="path3032" />
    </clipPath>
    <clipPath
       id="clipPath3026">
      <path
         d="m -9425.67,726.562 16383,0 0,-307.066 -16383,0 0,307.066 z"
         id="path3028" />
    </clipPath>
    <clipPath
       id="clipPath3018">
      <path
         d="M 0,792 1224,792 1224,0 0,0 0,792 z"
         id="path3020" />
    </clipPath>
    <linearGradient
       x1="190.25819"
       y1="466.53949"
       x2="1033.74"
       y2="466.53949"
       id="linearGradient3915"
       xlink:href="#linearGradient3909"
       gradientUnits="userSpaceOnUse" />
    <linearGradient
       x1="190.25819"
       y1="466.53949"
       x2="1033.74"
       y2="466.53949"
       id="linearGradient3964"
       xlink:href="#linearGradient3909"
       gradientUnits="userSpaceOnUse" />
    <linearGradient
       x1="190.25819"
       y1="466.53949"
       x2="1033.74"
       y2="466.53949"
       id="linearGradient3966"
       xlink:href="#linearGradient3909"
       gradientUnits="userSpaceOnUse" />
    <linearGradient
       x1="190.25819"
       y1="466.53949"
       x2="1033.74"
       y2="466.53949"
       id="linearGradient3968"
       xlink:href="#linearGradient3909"
       gradientUnits="userSpaceOnUse" />
    <linearGradient
       x1="190.25819"
       y1="466.53949"
       x2="1033.74"
       y2="466.53949"
       id="linearGradient3970"
       xlink:href="#linearGradient3909"
       gradientUnits="userSpaceOnUse" />
    <linearGradient
       x1="190.25819"
       y1="466.53949"
       x2="1033.74"
       y2="466.53949"
       id="linearGradient3972"
       xlink:href="#linearGradient3909"
       gradientUnits="userSpaceOnUse" />
    <linearGradient
       x1="190.25819"
       y1="466.53949"
       x2="1033.74"
       y2="466.53949"
       id="linearGradient3974"
       xlink:href="#linearGradient3909"
       gradientUnits="userSpaceOnUse" />
    <linearGradient
       x1="190.25819"
       y1="466.53949"
       x2="1033.74"
       y2="466.53949"
       id="linearGradient3976"
       xlink:href="#linearGradient3909"
       gradientUnits="userSpaceOnUse" />
    <linearGradient
       x1="190.25819"
       y1="466.53949"
       x2="1033.74"
       y2="466.53949"
       id="linearGradient3978"
       xlink:href="#linearGradient3909"
       gradientUnits="userSpaceOnUse" />
    <linearGradient
       x1="190.25819"
       y1="466.53949"
       x2="1033.74"
       y2="466.53949"
       id="linearGradient3980"
       xlink:href="#linearGradient3909"
       gradientUnits="userSpaceOnUse" />
    <linearGradient
       x1="190.25819"
       y1="466.53949"
       x2="1033.74"
       y2="466.53949"
       id="linearGradient3982"
       xlink:href="#linearGradient3909"
       gradientUnits="userSpaceOnUse" />
    <linearGradient
       x1="190.25819"
       y1="466.53949"
       x2="1033.74"
       y2="466.53949"
       id="linearGradient3984"
       xlink:href="#linearGradient3909"
       gradientUnits="userSpaceOnUse" />
    <linearGradient
       x1="190.25819"
       y1="466.53949"
       x2="1033.74"
       y2="466.53949"
       id="linearGradient3986"
       xlink:href="#linearGradient3909"
       gradientUnits="userSpaceOnUse" />
    <linearGradient
       x1="190.25819"
       y1="466.53949"
       x2="1033.74"
       y2="466.53949"
       id="linearGradient3988"
       xlink:href="#linearGradient3909"
       gradientUnits="userSpaceOnUse" />
    <linearGradient
       x1="190.25819"
       y1="466.53949"
       x2="1033.74"
       y2="466.53949"
       id="linearGradient3990"
       xlink:href="#linearGradient3909"
       gradientUnits="userSpaceOnUse" />
  </defs>
  <metadata
     id="metadata7">
    <rdf:RDF>
      <cc:Work
         rdf:about="">
        <dc:format>image/svg+xml</dc:format>
        <dc:type
           rdf:resource="http://purl.org/dc/dcmitype/StillImage" />
        <dc:title></dc:title>
      </cc:Work>
    </rdf:RDF>
  </metadata>
  <g
     transform="translate(177.17612,-168.49808)"
     id="layer1">
    <g
       transform="matrix(1.25,0,0,-1.25,-414.99887,1016.5762)"
       id="g3012">
      <g
         id="g3014">
        <g
           clip-path="url(#clipPath3018)"
           id="g3016"
           style="fill:url(#linearGradient3915);fill-opacity:1">
          <g
             id="g3022"
             style="fill:url(#linearGradient3974);fill-opacity:1">
            <g
               id="g3024"
               style="fill:url(#linearGradient3964);fill-opacity:1" />
            <g
               mask="url(#mask3044)"
               id="g3072"
               style="fill:url(#linearGradient3972);fill-opacity:1">
              <g
                 id="g3074"
                 style="fill:url(#linearGradient3966);fill-opacity:1" />
              <g
                 id="g3080"
                 style="fill:url(#linearGradient3970);fill-opacity:1">
                <g
                   clip-path="url(#clipPath3076)"
                   id="g3082"
                   style="fill:url(#linearGradient3968);fill-opacity:1" />
              </g>
            </g>
          </g>
          <g
             id="g3084"
             style="fill:url(#linearGradient3990);fill-opacity:1">
            <g
               id="g3086"
               style="fill:url(#linearGradient3976);fill-opacity:1" />
            <g
               mask="url(#mask3106)"
               id="g3130"
               style="fill:url(#linearGradient3988);fill-opacity:1">
              <g
                 id="g3132"
                 style="fill:url(#linearGradient3978);fill-opacity:1" />
              <g
                 id="g3138"
                 style="fill:url(#linearGradient3986);fill-opacity:1">
                <g
                   clip-path="url(#clipPath3134)"
                   id="g3140"
                   style="fill:url(#linearGradient3984);fill-opacity:1">
                  <g
                     transform="translate(927.0752,497.1211)"
                     id="g3142"
                     style="fill:url(#linearGradient3982);fill-opacity:1">
                    <path
                       d="m 0,0 c -18.52,0 -35.934,-4.725 -51.115,-13.027 0.156,2.348 0.242,4.717 0.242,7.105 0,58.911 -47.756,106.667 -106.665,106.667 -21.22,0 -40.99,-6.199 -57.604,-16.88 -15.143,40.482 -54.17,69.305 -99.934,69.305 -45.766,0 -84.789,-28.823 -99.933,-69.304 -16.615,10.681 -36.386,16.879 -57.605,16.879 -58.909,0 -106.665,-47.756 -106.665,-106.667 0,-2.003 0.062,-3.993 0.167,-5.972 -15.16,8.28 -32.548,12.987 -51.038,12.987 -58.912,0 -106.667,-47.756 -106.667,-106.667 0,-24.187 8.342,-47.958 23.506,-66.808 14.949,-18.58 36.04,-31.865 59.297,-37.18 14.084,-3.218 29.131,-4.791 43.58,-4.771 8.162,0.014 16.324,0 24.484,0 l 34.829,0 42.304,0 48.175,0 52.453,0 55.132,0 56.211,0 55.698,0 53.58,0 49.861,0 44.553,0 37.642,0 29.135,0 19.023,0 c 7.833,0 16.292,1.08 24.03,2.293 6.011,0.947 11.938,2.406 17.698,4.361 11.255,3.832 21.844,9.569 31.217,16.887 18.776,14.66 32.358,35.533 38.024,58.684 2.036,8.32 3.052,16.875 3.052,25.442 C 106.667,-47.758 58.911,0 0,0"
                       id="path3144"
                       style="fill:url(#linearGradient3980);fill-opacity:1;fill-rule:nonzero;stroke:none" />
                  </g>
                </g>
              </g>
            </g>
          </g>
        </g>
      </g>
      <g
         transform="matrix(1,0,0,-1,285.7314,150.5576)"
         id="text3146">
        <path
           d="m 106.67074,-13.528213 c -4.665,5.597889 -10.573873,9.7962958 -17.726625,12.59523278 C 81.894849,1.7622942 74.690176,3.109931 67.330073,3.1099341 59.036856,3.109931 51.469358,1.6586299 44.627554,-1.2439736 37.785661,-4.1465746 31.876792,-8.1376527 26.90093,-13.21722 21.925013,-18.400425 18.0376,-24.568455 15.238677,-31.721328 c -2.695289,-7.152809 -4.042926,-14.927637 -4.042914,-23.324505 -1.2e-5,-8.396759 1.347625,-16.171586 4.042914,-23.324506 2.798923,-7.152763 6.686336,-13.26896 11.662253,-18.348611 4.975862,-5.18312 10.884731,-9.22603 17.726624,-12.12874 6.945468,-2.9025 14.512967,-4.3538 22.702519,-4.35391 6.841781,1.1e-4 13.4763,1.19225 19.903578,3.57642 6.530768,2.28073 12.076811,5.80532 16.638149,10.573779 l -2.17696,2.487948 c -2.177049,-2.28052 -4.664994,-4.250147 -7.463837,-5.908877 -2.695368,-1.76219 -5.59797,-3.21349 -8.707816,-4.35391 -3.006352,-1.1402 -6.064451,-1.96951 -9.174305,-2.48794 -3.110008,-0.51822 -6.116274,-0.77738 -9.018809,-0.77749 -7.878559,1.1e-4 -15.083233,1.45141 -21.614042,4.35391 -6.427236,2.79904 -11.97328,6.686459 -16.638147,11.662254 -4.561262,4.975984 -8.137682,10.83302 -10.729273,17.571128 -2.487963,6.634595 -3.731935,13.787437 -3.731921,21.458545 -1.4e-5,7.671218 1.243958,14.875891 3.731921,21.614042 2.487927,6.634552 6.012515,12.439757 10.573776,17.41563 4.664867,4.975906 10.210911,8.9151519 16.638147,11.81775 C 52.091344,-1.3994689 59.347849,0 67.330073,0 c 6.841781,0 13.579964,-1.2958046 20.214571,-3.8874176 6.738097,-2.6952696 12.28414,-6.6863474 16.638146,-11.9732464 l 2.48795,2.332451 0,0"
           id="path3126"
           style="font-size:155.4967041px;font-variant:normal;font-weight:200;font-stretch:normal;writing-mode:lr-tb;fill:#231f20;fill-opacity:1;fill-rule:nonzero;stroke:none;font-family:Avenir Next Ultra Light;-inkscape-font-specification:AvenirNext-UltraLight" />
        <path
           d="m 207.7436,0 -13.06173,-31.565831 -63.90914,0 L 117.24452,0 l -3.73193,0 47.73749,-110.09167 4.35391,0 L 211.47552,0 207.7436,0 m -44.47206,-107.91471 -31.25484,73.394442 61.5767,0 -30.32186,-73.394442"
           id="path3129"
           style="font-size:155.4967041px;font-variant:normal;font-weight:200;font-stretch:normal;writing-mode:lr-tb;fill:#231f20;fill-opacity:1;fill-rule:nonzero;stroke:none;font-family:Avenir Next Ultra Light;-inkscape-font-specification:AvenirNext-UltraLight" />
      </g>
      <g
         transform="matrix(1,0,0,-1,500.00585,150.5576)"
         id="text3150">
        <path
           d="m 92.676036,-16.327154 0.310993,0 0,-93.764516 11.195761,0 0,110.09167 -13.994702,0 -64.064642,-94.697493 -0.310993,0 0,94.697493 -11.195763,0 0,-110.09167 13.994704,0 64.064642,93.764516"
           id="path3132"
           style="font-size:155.4967041px;font-variant:normal;font-weight:normal;font-stretch:normal;writing-mode:lr-tb;fill:#231f20;fill-opacity:1;fill-rule:nonzero;stroke:none;font-family:Avenir Next;-inkscape-font-specification:AvenirNext-Regular" />
        <path
           d="m 174.00081,2.7989407 c -8.29321,-2.8e-6 -15.08322,-1.3994718 -20.37007,-4.198411 -5.28692,-2.9026009 -9.48533,-6.5308537 -12.59523,-10.8847697 -3.10996,-4.353891 -5.28691,-9.070619 -6.53087,-14.1502 -1.14032,-5.183192 -1.71047,-10.055417 -1.71046,-14.61669 l 0,-69.04054 11.19576,0 0,67.796566 c -2e-5,4.457611 0.5183,8.811514 1.55497,13.061724 1.03662,4.146603 2.69525,7.878521 4.97589,11.195762 2.38425,3.213614 5.49418,5.857055 9.32981,7.930332 3.83554,1.9696333 8.55227,2.9544448 14.1502,2.9544376 5.59782,7.2e-6 10.31455,-0.9848043 14.1502,-2.9544376 3.83551,-2.073277 6.89361,-4.716718 9.1743,-7.930332 2.3842,-3.317241 4.09467,-7.049159 5.13139,-11.195762 1.03656,-4.25021 1.55489,-8.604113 1.55497,-13.061724 l 0,-67.796566 11.19576,0 0,69.04054 c -9e-5,4.561273 -0.62208,9.433498 -1.86596,14.61669 -1.1404,5.079581 -3.26552,9.796309 -6.37536,14.1502 -3.11002,4.353916 -7.36026,7.9821688 -12.75073,10.8847697 -5.28696,2.7989392 -12.02514,4.1984082 -20.21457,4.198411"
           id="path3134"
           style="font-size:155.4967041px;font-variant:normal;font-weight:normal;font-stretch:normal;writing-mode:lr-tb;fill:#231f20;fill-opacity:1;fill-rule:nonzero;stroke:none;font-family:Avenir Next;-inkscape-font-specification:AvenirNext-Regular" />
        <path
           d="m 243.81882,-110.09167 32.80981,0 c 4.14653,1.1e-4 8.34493,0.4666 12.59523,1.39947 4.25018,0.82943 8.03393,2.33256 11.35126,4.50941 3.42085,2.07339 6.16796,4.92416 8.24133,8.552317 2.17687,3.628348 3.26534,8.189581 3.26543,13.68371 -9e-5,5.805286 -1.76238,10.88484 -5.28689,15.238677 -3.52467,4.250306 -8.2414,7.049244 -14.1502,8.396822 l 0,0.310993 c 7.15278,0.829373 13.06165,3.628311 17.72662,8.396822 4.76848,4.664946 7.15276,11.040305 7.15285,19.126095 -9e-5,4.561263 -0.9849,8.759669 -2.95444,12.595233 -1.86604,3.731935 -4.56131,6.94553 -8.08582,9.6407957 -3.52467,2.5916174 -7.82674,4.6130725 -12.90623,6.0643714 C 288.49815,-0.72565056 282.79661,0 276.47313,0 l -32.65431,0 0,-110.09167 m 11.19577,48.203982 22.54702,0 c 2.69522,6.2e-5 5.3905,-0.310931 8.08583,-0.93298 2.79888,-0.621924 5.33866,-1.658567 7.61934,-3.109935 2.28055,-1.554899 4.09467,-3.576354 5.44238,-6.064371 1.45123,-2.487873 2.17688,-5.545972 2.17695,-9.174306 -7e-5,-3.524507 -0.72572,-6.478941 -2.17695,-8.863312 -1.34771,-2.487854 -3.21366,-4.50931 -5.59788,-6.064371 -2.38435,-1.55487 -5.18328,-2.643345 -8.39682,-3.265431 -3.21365,-0.725556 -6.63458,-1.088376 -10.26279,-1.088476 l -19.43708,0 0,38.563182 m 0,52.2468923 20.83655,0 c 4.04287,9.7e-6 7.87845,-0.3628153 11.50676,-1.0884773 3.73186,-0.829304 6.94545,-2.073276 9.6408,-3.73192 2.79887,-1.76228 5.02765,-3.991064 6.68635,-6.686359 1.65856,-2.798916 2.48787,-6.116176 2.48795,-9.951789 -8e-5,-7.256474 -2.48802,-12.647021 -7.46384,-16.171657 -4.87229,-3.628206 -11.81781,-5.442332 -20.83656,-5.442385 l -22.85801,0 0,43.0725873"
           id="path3137"
           style="font-size:155.4967041px;font-variant:normal;font-weight:normal;font-stretch:normal;writing-mode:lr-tb;fill:#231f20;fill-opacity:1;fill-rule:nonzero;stroke:none;font-family:Avenir Next;-inkscape-font-specification:AvenirNext-Regular" />
        <path
           d="m 353.91048,-9.9517891 58.93325,0 0,9.9517891 -70.12902,0 0,-110.09167 68.26306,0 0,9.95179 -57.06729,0 0,37.941198 53.33536,0 0,9.796293 -53.33536,0 0,42.4505999"
           id="path3139"
           style="font-size:155.4967041px;font-variant:normal;font-weight:normal;font-stretch:normal;writing-mode:lr-tb;fill:#231f20;fill-opacity:1;fill-rule:nonzero;stroke:none;font-family:Avenir Next;-inkscape-font-specification:AvenirNext-Regular" />
      </g>
      <g
         id="g3154">
        <g
           clip-path="url(#clipPath3158)"
           id="g3156">
          <g
             transform="translate(432.1973,530.8843)"
             id="g3162">
            <path
               d="m 0,0 c 0,-12.358 -10.019,-22.377 -22.38,-22.377 -12.357,0 -22.377,10.019 -22.377,22.377 0,12.36 10.02,22.379 22.377,22.379 C -10.019,22.379 0,12.36 0,0"
               id="path3164"
               style="fill:#231f20;fill-opacity:1;fill-rule:nonzero;stroke:none" />
          </g>
          <g
             transform="translate(564.165,370.8877)"
             id="g3166">
            <path
               d="m 0,0 c 0,-12.362 -10.019,-22.378 -22.379,-22.378 -12.358,0 -22.377,10.016 -22.377,22.378 0,12.358 10.019,22.376 22.377,22.376 C -10.019,22.376 0,12.358 0,0"
               id="path3168"
               style="fill:#231f20;fill-opacity:1;fill-rule:nonzero;stroke:none" />
          </g>
          <g
             transform="translate(733.0068,431.7676)"
             id="g3170">
            <path
               d="m 0,0 c 0,-20.01 -16.222,-36.231 -36.234,-36.231 -20.01,0 -36.233,16.221 -36.233,36.231 0,20.012 16.223,36.234 36.233,36.234 C -16.222,36.234 0,20.012 0,0"
               id="path3172"
               style="fill:#231f20;fill-opacity:1;fill-rule:nonzero;stroke:none" />
          </g>
          <g
             transform="translate(898.8174,656.0835)"
             id="g3174">
            <path
               d="m 0,0 c 0,-12.358 -10.019,-22.377 -22.379,-22.377 -12.358,0 -22.377,10.019 -22.377,22.377 0,12.36 10.019,22.379 22.377,22.379 C -10.019,22.379 0,12.36 0,0"
               id="path3176"
               style="fill:#231f20;fill-opacity:1;fill-rule:nonzero;stroke:none" />
          </g>
          <g
             transform="translate(409.8174,530.8843)"
             id="g3178">
            <path
               d="m 0,0 131.969,-159.997 154.986,60.88 179.666,224.316"
               id="path3180"
               style="fill:none;stroke:#231f20;stroke-width:4.26300001;stroke-linecap:butt;stroke-linejoin:miter;stroke-miterlimit:10;stroke-opacity:1;stroke-dasharray:none" />
          </g>
          <g
             transform="translate(682.9189,513.4834)"
             id="g3182">
            <path
               d="m 0,0 c 0,-12.358 -10.018,-22.377 -22.379,-22.377 -12.357,0 -22.377,10.019 -22.377,22.377 0,12.36 10.02,22.379 22.377,22.379 C -10.018,22.379 0,12.36 0,0"
               id="path3184"
               style="fill:#231f20;fill-opacity:1;fill-rule:nonzero;stroke:none" />
          </g>
          <g
             transform="translate(842.6895,359.2969)"
             id="g3186">
            <path
               d="m 0,0 c 0,-12.361 -10.019,-22.377 -22.379,-22.377 -12.358,0 -22.377,10.016 -22.377,22.377 0,12.36 10.019,22.377 22.377,22.377 C -10.019,22.377 0,12.36 0,0"
               id="path3188"
               style="fill:#231f20;fill-opacity:1;fill-rule:nonzero;stroke:none" />
          </g>
          <g
             transform="translate(660.54,513.4844)"
             id="g3190">
            <path
               d="m 0,0 36.232,-81.717 123.539,-72.47"
               id="path3192"
               style="fill:none;stroke:#231f20;stroke-width:4.26300001;stroke-linecap:butt;stroke-linejoin:miter;stroke-miterlimit:10;stroke-opacity:1;stroke-dasharray:none" />
          </g>
        </g>
      </g>
      <g
         transform="matrix(1,0,0,-1,311,97)"
         id="text3194">
        <path
           d="m 24.696,-3.132 c -1.080024,1.2960018 -2.448022,2.26800086 -4.104,2.916 -1.632019,0.62399959 -3.300017,0.93599928 -5.004,0.936 -1.920014,-7.2e-7 -3.672012,-0.33600038 -5.256,-1.008 C 8.7479913,-0.95999904 7.3799926,-1.8839981 6.228,-3.06 5.0759949,-4.2599957 4.1759958,-5.6879943 3.528,-7.344 c -0.6240029,-1.655991 -0.9360026,-3.455989 -0.936,-5.4 -2.6e-6,-1.943985 0.3119971,-3.743984 0.936,-5.4 0.6479958,-1.65598 1.5479949,-3.071979 2.7,-4.248 1.1519926,-1.199976 2.5199913,-2.135975 4.104,-2.808 1.607988,-0.671974 3.359986,-1.007974 5.256,-1.008 1.583983,2.6e-5 3.119981,0.276026 4.608,0.828 1.511978,0.528025 2.795977,1.344024 3.852,2.448 l -0.504,0.576 c -0.504023,-0.527977 -1.080022,-0.983977 -1.728,-1.368 -0.624021,-0.407976 -1.296021,-0.743976 -2.016,-1.008 -0.696019,-0.263975 -1.404018,-0.455975 -2.124,-0.576 -0.720017,-0.119975 -1.416016,-0.179975 -2.088,-0.18 -1.824014,2.5e-5 -3.492012,0.336025 -5.004,1.008 -1.4880091,0.648024 -2.7720078,1.548023 -3.852,2.7 -1.0560057,1.152021 -1.8840048,2.508019 -2.484,4.068 -0.5760037,1.536016 -0.8640034,3.192015 -0.864,4.968 -3.4e-6,1.776011 0.2879963,3.4440093 0.864,5.004 0.5759952,1.5360062 1.3919944,2.8800049 2.448,4.032 1.0799922,1.1520026 2.3639909,2.0640016 3.852,2.736 1.511988,0.64800032 3.191986,0.972 5.04,0.972 1.583983,0 3.143981,-0.2999997 4.68,-0.9 1.559978,-0.6239985 2.843977,-1.5479976 3.852,-2.772 l 0.576,0.54 0,0"
           id="path3080"
           style="font-size:36px;font-variant:normal;font-weight:200;font-stretch:normal;writing-mode:lr-tb;fill:#000000;fill-opacity:1;fill-rule:nonzero;stroke:none;font-family:Avenir Next Ultra Light;-inkscape-font-specification:AvenirNext-UltraLight" />
        <path
           d="m 37.332,-22.788 c -0.216004,2.3e-5 -0.408004,-0.08398 -0.576,-0.252 -0.168003,-0.167977 -0.252003,-0.395977 -0.252,-0.684 -3e-6,-0.263976 0.084,-0.479976 0.252,-0.648 0.167996,-0.167975 0.359996,-0.251975 0.576,-0.252 0.215996,2.5e-5 0.407995,0.08403 0.576,0.252 0.167995,0.168024 0.251995,0.384024 0.252,0.648 -5e-6,0.288023 -0.096,0.516023 -0.288,0.684 -0.168005,0.168023 -0.348004,0.252023 -0.54,0.252 M 36.936,0 l 0,-16.56 0.792,0 0,16.56 -0.792,0"
           id="path3082"
           style="font-size:36px;font-variant:normal;font-weight:200;font-stretch:normal;writing-mode:lr-tb;fill:#000000;fill-opacity:1;fill-rule:nonzero;stroke:none;font-family:Avenir Next Ultra Light;-inkscape-font-specification:AvenirNext-UltraLight" />
        <path
           d="m 51.623998,-8.46 c -3e-6,1.0080075 0.143997,2.0040065 0.432,2.988 0.311997,0.9840045 0.767996,1.8720036 1.368,2.664 0.623995,0.768002 1.403994,1.3920014 2.34,1.872 0.935992,0.48000046 2.039991,0.72000022 3.312,0.72 1.295989,2.2e-7 2.447988,-0.25199953 3.456,-0.756 1.007986,-0.5279985 1.883985,-1.2839977 2.628,-2.268 l 0.576,0.504 c -0.816016,1.0560017 -1.776015,1.86000088 -2.88,2.412 -1.080013,0.55199977 -2.340011,0.8279995 -3.78,0.828 -1.224009,-5e-7 -2.340008,-0.21600029 -3.348,-0.648 -1.008006,-0.4559994 -1.884005,-1.0799988 -2.628,-1.872 -0.720003,-0.7919972 -1.284003,-1.7399962 -1.692,-2.844 -0.384002,-1.103994 -0.576002,-2.3039928 -0.576,-3.6 -2e-6,-1.2479903 0.203998,-2.399989 0.612,-3.456 0.407997,-1.055987 0.959997,-1.967986 1.656,-2.736 0.719995,-0.767985 1.559994,-1.355984 2.52,-1.764 0.959992,-0.431983 1.991991,-0.647983 3.096,-0.648 1.295989,1.7e-5 2.423988,0.228017 3.384,0.684 0.959986,0.456016 1.751985,1.056015 2.376,1.8 0.647984,0.744014 1.127983,1.596013 1.44,2.556 0.311983,0.936011 0.467983,1.89601 0.468,2.88 l 0,0.684 -14.76,0 m 14.004,-0.684 c -0.02402,-1.07999 -0.216016,-2.063989 -0.576,-2.952 -0.336016,-0.887987 -0.804015,-1.643986 -1.404,-2.268 -0.600014,-0.647985 -1.320013,-1.139984 -2.16,-1.476 -0.840012,-0.359984 -1.776011,-0.539984 -2.808,-0.54 -1.248008,1.6e-5 -2.316007,0.264016 -3.204,0.792 -0.888006,0.504015 -1.620005,1.140014 -2.196,1.908 -0.552004,0.744013 -0.960003,1.536012 -1.224,2.376 -0.264003,0.81601 -0.396003,1.5360098 -0.396,2.16 l 13.968,0"
           id="path3084"
           style="font-size:36px;font-variant:normal;font-weight:200;font-stretch:normal;writing-mode:lr-tb;fill:#000000;fill-opacity:1;fill-rule:nonzero;stroke:none;font-family:Avenir Next Ultra Light;-inkscape-font-specification:AvenirNext-UltraLight" />
        <path
           d="m 80.424002,-12.204 c 0.239995,-0.767987 0.587995,-1.451986 1.044,-2.052 0.455994,-0.599985 0.971993,-1.103985 1.548,-1.512 0.575992,-0.431984 1.199991,-0.755983 1.872,-0.972 0.67199,-0.215983 1.367989,-0.323983 2.088,-0.324 1.151988,1.7e-5 2.111987,0.204017 2.88,0.612 0.767985,0.408016 1.379984,0.948016 1.836,1.62 0.455984,0.672014 0.779983,1.428013 0.972,2.268 0.191983,0.840012 0.287983,1.692011 0.288,2.556 l 0,10.008 -0.792,0 0,-9.936 c -1.6e-5,-0.671989 -0.07202,-1.391989 -0.216,-2.16 -0.144016,-0.767987 -0.420016,-1.463986 -0.828,-2.088 -0.384015,-0.623985 -0.912014,-1.139985 -1.584,-1.548 -0.672013,-0.431984 -1.524012,-0.647984 -2.556,-0.648 -0.91201,1.6e-5 -1.776009,0.192016 -2.592,0.576 -0.792008,0.360015 -1.488007,0.888015 -2.088,1.584 -0.576006,0.696014 -1.044006,1.548013 -1.404,2.556 -0.336005,0.984011 -0.504005,2.1120096 -0.504,3.384 l 0,8.28 -0.792,0 0,-12.384 c -4e-6,-0.263987 -0.012,-0.587987 -0.036,-0.972 -4e-6,-0.383986 -0.012,-0.767986 -0.036,-1.152 -4e-6,-0.407985 -0.012,-0.791985 -0.036,-1.152 -0.024,-0.359984 -0.048,-0.659984 -0.072,-0.9 l 0.792,0 c 0.024,0.240016 0.03599,0.540016 0.036,0.9 0.02399,0.360015 0.03599,0.756015 0.036,1.188 0.02399,0.408014 0.03599,0.816014 0.036,1.224 0.02399,0.384013 0.03599,0.732013 0.036,1.044 l 0.072,0 0,0"
           id="path3086"
           style="font-size:36px;font-variant:normal;font-weight:200;font-stretch:normal;writing-mode:lr-tb;fill:#000000;fill-opacity:1;fill-rule:nonzero;stroke:none;font-family:Avenir Next Ultra Light;-inkscape-font-specification:AvenirNext-UltraLight" />
        <path
           d="m 119.088,-14.328 c -0.62401,-0.647985 -1.35601,-1.151985 -2.196,-1.512 -0.84001,-0.359984 -1.71601,-0.539984 -2.628,-0.54 -1.17601,1.6e-5 -2.23201,0.228016 -3.168,0.684 -0.936,0.432015 -1.74,1.020015 -2.412,1.764 -0.648,0.744013 -1.152,1.608012 -1.512,2.592 -0.36,0.98401 -0.54,2.0160093 -0.54,3.096 0,1.0800072 0.18,2.1120061 0.54,3.096 0.36,0.9840042 0.864,1.8480033 1.512,2.592 0.672,0.7200018 1.476,1.2960013 2.412,1.728 0.93599,0.4320004 1.99199,0.64800018 3.168,0.648 0.91199,1.8e-7 1.79999,-0.15599966 2.664,-0.468 0.88799,-0.31199904 1.65599,-0.7799986 2.304,-1.404 l 0.54,0.504 c -0.72001,0.72000083 -1.57201,1.23600031 -2.556,1.548 -0.96001,0.33599966 -1.94401,0.5039995 -2.952,0.504 -1.22401,-5e-7 -2.35201,-0.21600029 -3.384,-0.648 -1.008,-0.43199942 -1.896,-1.0319988 -2.664,-1.8 -0.744,-0.7679973 -1.332,-1.6919964 -1.764,-2.772 -0.408,-1.0799942 -0.612,-2.255993 -0.612,-3.528 0,-1.2719905 0.204,-2.447989 0.612,-3.528 0.432,-1.079987 1.02,-2.003986 1.764,-2.772 0.768,-0.791985 1.656,-1.403984 2.664,-1.836 1.03199,-0.455983 2.15999,-0.683983 3.384,-0.684 1.05599,1.7e-5 2.05199,0.192017 2.988,0.576 0.95999,0.384016 1.77599,0.924016 2.448,1.62 l -0.612,0.54"
           id="path3088"
           style="font-size:36px;font-variant:normal;font-weight:200;font-stretch:normal;writing-mode:lr-tb;fill:#000000;fill-opacity:1;fill-rule:nonzero;stroke:none;font-family:Avenir Next Ultra Light;-inkscape-font-specification:AvenirNext-UltraLight" />
        <path
           d="m 132.156,-22.788 c -0.21601,2.3e-5 -0.40801,-0.08398 -0.576,-0.252 -0.16801,-0.167977 -0.25201,-0.395977 -0.252,-0.684 -1e-5,-0.263976 0.084,-0.479976 0.252,-0.648 0.16799,-0.167975 0.35999,-0.251975 0.576,-0.252 0.21599,2.5e-5 0.40799,0.08403 0.576,0.252 0.16799,0.168024 0.25199,0.384024 0.252,0.648 -1e-5,0.288023 -0.096,0.516023 -0.288,0.684 -0.16801,0.168023 -0.34801,0.252023 -0.54,0.252 M 131.76,0 l 0,-16.56 0.792,0 0,16.56 -0.792,0"
           id="path3091"
           style="font-size:36px;font-variant:normal;font-weight:200;font-stretch:normal;writing-mode:lr-tb;fill:#000000;fill-opacity:1;fill-rule:nonzero;stroke:none;font-family:Avenir Next Ultra Light;-inkscape-font-specification:AvenirNext-UltraLight" />
        <path
           d="m 158.472,-3.744 c -2e-5,0.6240031 0.024,1.2960024 0.072,2.016 0.072,0.696001 0.14398,1.27200046 0.216,1.728 l -0.756,0 c -0.048,-0.23999976 -0.084,-0.52799947 -0.108,-0.864 -0.024,-0.3599988 -0.06,-0.7199984 -0.108,-1.08 -0.024,-0.3839977 -0.048,-0.7559973 -0.072,-1.116 -2e-5,-0.3599966 -2e-5,-0.6599963 0,-0.9 l -0.108,0 c -0.48002,1.5120024 -1.30802,2.6400013 -2.484,3.384 -1.17601,0.71999986 -2.43601,1.0799995 -3.78,1.08 -0.67201,-5e-7 -1.34401,-0.0960004 -2.016,-0.288 -0.64801,-0.19200002 -1.23601,-0.47999974 -1.764,-0.864 -0.52801,-0.383999 -0.96001,-0.8759985 -1.296,-1.476 -0.31201,-0.5999973 -0.46801,-1.3079966 -0.468,-2.124 -1e-5,-1.1759946 0.29999,-2.1239936 0.9,-2.844 0.62399,-0.7199922 1.39199,-1.2719916 2.304,-1.656 0.91199,-0.4079908 1.88399,-0.6719906 2.916,-0.792 1.05599,-0.1199903 2.01599,-0.1799903 2.88,-0.18 l 2.88,0 0,-1.332 c -2e-5,-1.847987 -0.49202,-3.191986 -1.476,-4.032 -0.98402,-0.863984 -2.26801,-1.295984 -3.852,-1.296 -0.98401,1.6e-5 -1.90801,0.180016 -2.772,0.54 -0.84001,0.360015 -1.59601,0.840015 -2.268,1.44 l -0.432,-0.612 c 0.76799,-0.671984 1.63199,-1.175984 2.592,-1.512 0.98399,-0.359983 1.94399,-0.539983 2.88,-0.54 1.89599,1.7e-5 3.38398,0.492017 4.464,1.476 1.10398,0.960015 1.65598,2.484013 1.656,4.572 l 0,7.272 m -0.792,-5.292 -2.556,0 c -0.91201,9e-6 -1.87201,0.060009 -2.88,0.18 -1.00801,0.096009 -1.93201,0.3120085 -2.772,0.648 -0.84001,0.3360079 -1.53601,0.8160074 -2.088,1.44 -0.52801,0.6240061 -0.79201,1.4640053 -0.792,2.52 -1e-5,0.7680035 0.14399,1.4160028 0.432,1.944 0.31199,0.5040018 0.69599,0.9120014 1.152,1.224 0.47999,0.31200077 0.99599,0.54000054 1.548,0.684 0.57599,0.14400025 1.11599,0.21600018 1.62,0.216 1.22399,1.8e-7 2.24399,-0.22799959 3.06,-0.684 0.81598,-0.4559987 1.46398,-1.0319981 1.944,-1.728 0.50398,-0.7199967 0.85198,-1.4999959 1.044,-2.34 0.19198,-0.8639942 0.28798,-1.7039934 0.288,-2.52 l 0,-1.584"
           id="path3093"
           style="font-size:36px;font-variant:normal;font-weight:200;font-stretch:normal;writing-mode:lr-tb;fill:#000000;fill-opacity:1;fill-rule:nonzero;stroke:none;font-family:Avenir Next Ultra Light;-inkscape-font-specification:AvenirNext-UltraLight" />
        <path
           d="m 207.072,0 -3.024,-7.308 -14.796,0 -3.132,7.308 -0.864,0 11.052,-25.488 1.008,0 10.62,25.488 -0.864,0 m -10.296,-24.984 -7.236,16.992 14.256,0 -7.02,-16.992"
           id="path3095"
           style="font-size:36px;font-variant:normal;font-weight:200;font-stretch:normal;writing-mode:lr-tb;fill:#000000;fill-opacity:1;fill-rule:nonzero;stroke:none;font-family:Avenir Next Ultra Light;-inkscape-font-specification:AvenirNext-UltraLight" />
        <path
           d="m 220.356,-12.06 c 0.71999,-1.655986 1.73999,-2.903985 3.06,-3.744 1.34399,-0.839983 2.80799,-1.259983 4.392,-1.26 1.22398,1.7e-5 2.33998,0.228017 3.348,0.684 1.03198,0.432016 1.90798,1.044015 2.628,1.836 0.74398,0.768014 1.30798,1.692013 1.692,2.772 0.40798,1.080011 0.61198,2.2560095 0.612,3.528 -2e-5,1.248007 -0.20402,2.4120058 -0.612,3.492 -0.40802,1.0560037 -0.98402,1.9800028 -1.728,2.772 -0.72002,0.7680012 -1.59602,1.3800006 -2.628,1.836 -1.00802,0.43199971 -2.11202,0.6479995 -3.312,0.648 -0.79201,-5e-7 -1.57201,-0.1080004 -2.34,-0.324 -0.74401,-0.21599996 -1.44001,-0.52799965 -2.088,-0.936 -0.64801,-0.4319988 -1.23601,-0.9479983 -1.764,-1.548 -0.52801,-0.6239971 -0.94801,-1.3439964 -1.26,-2.16 l -0.108,0 0,4.464 -0.792,0 0,-27.216 0.792,0 0,15.156 0.108,0 m 14.94,3.816 c -2e-5,-1.0799907 -0.18002,-2.11199 -0.54,-3.096 -0.33602,-0.983988 -0.82802,-1.847987 -1.476,-2.592 -0.64802,-0.743985 -1.44002,-1.331985 -2.376,-1.764 -0.91202,-0.455984 -1.94402,-0.683984 -3.096,-0.684 -1.10401,1.6e-5 -2.12401,0.216016 -3.06,0.648 -0.91201,0.432015 -1.70401,1.020015 -2.376,1.764 -0.67201,0.720013 -1.20001,1.572012 -1.584,2.556 -0.38401,0.98401 -0.57601,2.0280094 -0.576,3.132 -1e-5,1.1040072 0.19199,2.1480061 0.576,3.132 0.38399,0.9840042 0.91199,1.8480033 1.584,2.592 0.67199,0.7200018 1.46399,1.2960013 2.376,1.728 0.93599,0.4320004 1.95599,0.64800018 3.06,0.648 1.15198,1.8e-7 2.18398,-0.2159996 3.096,-0.648 0.93598,-0.4319987 1.72798,-1.0079982 2.376,-1.728 0.64798,-0.7439967 1.13998,-1.6079958 1.476,-2.592 0.35998,-0.9839939 0.53998,-2.0159928 0.54,-3.096"
           id="path3097"
           style="font-size:36px;font-variant:normal;font-weight:200;font-stretch:normal;writing-mode:lr-tb;fill:#000000;fill-opacity:1;fill-rule:nonzero;stroke:none;font-family:Avenir Next Ultra Light;-inkscape-font-specification:AvenirNext-UltraLight" />
        <path
           d="m 249.588,-22.788 c -0.216,2.3e-5 -0.408,-0.08398 -0.576,-0.252 -0.168,-0.167977 -0.252,-0.395977 -0.252,-0.684 0,-0.263976 0.084,-0.479976 0.252,-0.648 0.168,-0.167975 0.36,-0.251975 0.576,-0.252 0.216,2.5e-5 0.408,0.08403 0.576,0.252 0.168,0.168024 0.252,0.384024 0.252,0.648 0,0.288023 -0.096,0.516023 -0.288,0.684 -0.168,0.168023 -0.348,0.252023 -0.54,0.252 M 249.192,0 l 0,-16.56 0.792,0 0,16.56 -0.792,0"
           id="path3099"
           style="font-size:36px;font-variant:normal;font-weight:200;font-stretch:normal;writing-mode:lr-tb;fill:#000000;fill-opacity:1;fill-rule:nonzero;stroke:none;font-family:Avenir Next Ultra Light;-inkscape-font-specification:AvenirNext-UltraLight" />
        <path
           d="m 263.87999,-8.46 c -1e-5,1.0080075 0.14399,2.0040065 0.432,2.988 0.31199,0.9840045 0.76799,1.8720036 1.368,2.664 0.62399,0.768002 1.40399,1.3920014 2.34,1.872 0.93599,0.48000046 2.03999,0.72000022 3.312,0.72 1.29599,2.2e-7 2.44798,-0.25199953 3.456,-0.756 1.00798,-0.5279985 1.88398,-1.2839977 2.628,-2.268 l 0.576,0.504 c -0.81602,1.0560017 -1.77602,1.86000088 -2.88,2.412 -1.08002,0.55199977 -2.34001,0.8279995 -3.78,0.828 -1.22401,-5e-7 -2.34001,-0.21600029 -3.348,-0.648 -1.00801,-0.4559994 -1.88401,-1.0799988 -2.628,-1.872 -0.72001,-0.7919972 -1.28401,-1.7399962 -1.692,-2.844 -0.384,-1.103994 -0.576,-2.3039928 -0.576,-3.6 0,-1.2479903 0.204,-2.399989 0.612,-3.456 0.40799,-1.055987 0.95999,-1.967986 1.656,-2.736 0.71999,-0.767985 1.55999,-1.355984 2.52,-1.764 0.95999,-0.431983 1.99199,-0.647983 3.096,-0.648 1.29599,1.7e-5 2.42399,0.228017 3.384,0.684 0.95998,0.456016 1.75198,1.056015 2.376,1.8 0.64798,0.744014 1.12798,1.596013 1.44,2.556 0.31198,0.936011 0.46798,1.89601 0.468,2.88 l 0,0.684 -14.76,0 m 14.004,-0.684 c -0.024,-1.07999 -0.21602,-2.063989 -0.576,-2.952 -0.33602,-0.887987 -0.80402,-1.643986 -1.404,-2.268 -0.60002,-0.647985 -1.32002,-1.139984 -2.16,-1.476 -0.84001,-0.359984 -1.77601,-0.539984 -2.808,-0.54 -1.24801,1.6e-5 -2.31601,0.264016 -3.204,0.792 -0.88801,0.504015 -1.62001,1.140014 -2.196,1.908 -0.55201,0.744013 -0.96001,1.536012 -1.224,2.376 -0.26401,0.81601 -0.39601,1.5360098 -0.396,2.16 l 13.968,0"
           id="path3101"
           style="font-size:36px;font-variant:normal;font-weight:200;font-stretch:normal;writing-mode:lr-tb;fill:#000000;fill-opacity:1;fill-rule:nonzero;stroke:none;font-family:Avenir Next Ultra Light;-inkscape-font-specification:AvenirNext-UltraLight" />
        <path
           d="m 292.67999,-12.204 c 0.48,-1.727986 1.248,-2.963985 2.304,-3.708 1.05599,-0.767983 2.19599,-1.151983 3.42,-1.152 0.11999,1.7e-5 0.22799,1.7e-5 0.324,0 0.096,1.7e-5 0.20399,0.01202 0.324,0.036 l 0,0.684 c -0.096,-0.02398 -0.19201,-0.03598 -0.288,-0.036 -0.072,1.6e-5 -0.13201,1.6e-5 -0.18,0 -1.05601,1.6e-5 -1.95601,0.240016 -2.7,0.72 -0.74401,0.456015 -1.35601,1.068015 -1.836,1.836 -0.48,0.744013 -0.84,1.584012 -1.08,2.52 -0.216,0.91201 -0.324,1.8240095 -0.324,2.736 l 0,8.568 -0.792,0 0,-12.384 c 0,-0.263987 -0.012,-0.587987 -0.036,-0.972 0,-0.383986 -0.012,-0.767986 -0.036,-1.152 0,-0.407985 -0.012,-0.791985 -0.036,-1.152 -0.024,-0.359984 -0.048,-0.659984 -0.072,-0.9 l 0.792,0 c 0.024,0.240016 0.036,0.540016 0.036,0.9 0.024,0.360015 0.036,0.756015 0.036,1.188 0.024,0.408014 0.036,0.816014 0.036,1.224 0.024,0.384013 0.036,0.732013 0.036,1.044 l 0.072,0 0,0"
           id="path3103"
           style="font-size:36px;font-variant:normal;font-weight:200;font-stretch:normal;writing-mode:lr-tb;fill:#000000;fill-opacity:1;fill-rule:nonzero;stroke:none;font-family:Avenir Next Ultra Light;-inkscape-font-specification:AvenirNext-UltraLight" />
        <path
           d="m 316.33201,0.036 c -0.28801,0.11999984 -0.62401,0.21599975 -1.008,0.288 -0.384,0.0719996 -0.756,0.10799957 -1.116,0.108 -1.296,-4.3e-7 -2.232,-0.36000007 -2.808,-1.08 -0.552,-0.7439986 -0.828,-1.6679977 -0.828,-2.772 l 0,-12.456 -3.6,0 0,-0.684 3.564,0 0,-4.86 0.828,0 0,4.86 4.86,0 0,0.684 -4.86,0 0,12.456 c 0,1.1280023 0.276,1.9440015 0.828,2.448 0.552,0.48000049 1.284,0.72000025 2.196,0.72 0.672,2.5e-7 1.28399,-0.10799964 1.836,-0.324 l 0.108,0.612 0,0"
           id="path3105"
           style="font-size:36px;font-variant:normal;font-weight:200;font-stretch:normal;writing-mode:lr-tb;fill:#000000;fill-opacity:1;fill-rule:nonzero;stroke:none;font-family:Avenir Next Ultra Light;-inkscape-font-specification:AvenirNext-UltraLight" />
        <path
           d="m 339.444,-3.744 c -2e-5,0.6240031 0.024,1.2960024 0.072,2.016 0.072,0.696001 0.14398,1.27200046 0.216,1.728 l -0.756,0 c -0.048,-0.23999976 -0.084,-0.52799947 -0.108,-0.864 -0.024,-0.3599988 -0.06,-0.7199984 -0.108,-1.08 -0.024,-0.3839977 -0.048,-0.7559973 -0.072,-1.116 -2e-5,-0.3599966 -2e-5,-0.6599963 0,-0.9 l -0.108,0 c -0.48002,1.5120024 -1.30802,2.6400013 -2.484,3.384 -1.17601,0.71999986 -2.43601,1.0799995 -3.78,1.08 -0.67201,-5e-7 -1.34401,-0.0960004 -2.016,-0.288 -0.64801,-0.19200002 -1.23601,-0.47999974 -1.764,-0.864 -0.52801,-0.383999 -0.96001,-0.8759985 -1.296,-1.476 -0.31201,-0.5999973 -0.46801,-1.3079966 -0.468,-2.124 -10e-6,-1.1759946 0.29999,-2.1239936 0.9,-2.844 0.62399,-0.7199922 1.39199,-1.2719916 2.304,-1.656 0.91199,-0.4079908 1.88399,-0.6719906 2.916,-0.792 1.05599,-0.1199903 2.01599,-0.1799903 2.88,-0.18 l 2.88,0 0,-1.332 c -2e-5,-1.847987 -0.49202,-3.191986 -1.476,-4.032 -0.98402,-0.863984 -2.26801,-1.295984 -3.852,-1.296 -0.98401,1.6e-5 -1.90801,0.180016 -2.772,0.54 -0.84001,0.360015 -1.59601,0.840015 -2.268,1.44 l -0.432,-0.612 c 0.76799,-0.671984 1.63199,-1.175984 2.592,-1.512 0.98399,-0.359983 1.94399,-0.539983 2.88,-0.54 1.89599,1.7e-5 3.38398,0.492017 4.464,1.476 1.10398,0.960015 1.65598,2.484013 1.656,4.572 l 0,7.272 m -0.792,-5.292 -2.556,0 c -0.91201,9e-6 -1.87201,0.060009 -2.88,0.18 -1.00801,0.096009 -1.93201,0.3120085 -2.772,0.648 -0.84001,0.3360079 -1.53601,0.8160074 -2.088,1.44 -0.52801,0.6240061 -0.79201,1.4640053 -0.792,2.52 -1e-5,0.7680035 0.14399,1.4160028 0.432,1.944 0.31199,0.5040018 0.69599,0.9120014 1.152,1.224 0.47999,0.31200077 0.99599,0.54000054 1.548,0.684 0.57599,0.14400025 1.11599,0.21600018 1.62,0.216 1.22399,1.8e-7 2.24399,-0.22799959 3.06,-0.684 0.81598,-0.4559987 1.46398,-1.0319981 1.944,-1.728 0.50398,-0.7199967 0.85198,-1.4999959 1.044,-2.34 0.19198,-0.8639942 0.28798,-1.7039934 0.288,-2.52 l 0,-1.584"
           id="path3107"
           style="font-size:36px;font-variant:normal;font-weight:200;font-stretch:normal;writing-mode:lr-tb;fill:#000000;fill-opacity:1;fill-rule:nonzero;stroke:none;font-family:Avenir Next Ultra Light;-inkscape-font-specification:AvenirNext-UltraLight" />
        <path
           d="m 369.252,-8.46 c -1e-5,1.0080075 0.14399,2.0040065 0.432,2.988 0.31199,0.9840045 0.76799,1.8720036 1.368,2.664 0.62399,0.768002 1.40399,1.3920014 2.34,1.872 0.93599,0.48000046 2.03999,0.72000022 3.312,0.72 1.29599,2.2e-7 2.44798,-0.25199953 3.456,-0.756 1.00798,-0.5279985 1.88398,-1.2839977 2.628,-2.268 l 0.576,0.504 c -0.81602,1.0560017 -1.77602,1.86000088 -2.88,2.412 -1.08002,0.55199977 -2.34002,0.8279995 -3.78,0.828 -1.22401,-5e-7 -2.34001,-0.21600029 -3.348,-0.648 -1.00801,-0.4559994 -1.88401,-1.0799988 -2.628,-1.872 -0.72001,-0.7919972 -1.28401,-1.7399962 -1.692,-2.844 -0.38401,-1.103994 -0.57601,-2.3039928 -0.576,-3.6 -10e-6,-1.2479903 0.20399,-2.399989 0.612,-3.456 0.40799,-1.055987 0.95999,-1.967986 1.656,-2.736 0.71999,-0.767985 1.55999,-1.355984 2.52,-1.764 0.95999,-0.431983 1.99199,-0.647983 3.096,-0.648 1.29599,1.7e-5 2.42398,0.228017 3.384,0.684 0.95998,0.456016 1.75198,1.056015 2.376,1.8 0.64798,0.744014 1.12798,1.596013 1.44,2.556 0.31198,0.936011 0.46798,1.89601 0.468,2.88 l 0,0.684 -14.76,0 m 14.004,-0.684 c -0.024,-1.07999 -0.21602,-2.063989 -0.576,-2.952 -0.33602,-0.887987 -0.80402,-1.643986 -1.404,-2.268 -0.60002,-0.647985 -1.32002,-1.139984 -2.16,-1.476 -0.84002,-0.359984 -1.77601,-0.539984 -2.808,-0.54 -1.24801,1.6e-5 -2.31601,0.264016 -3.204,0.792 -0.88801,0.504015 -1.62001,1.140014 -2.196,1.908 -0.55201,0.744013 -0.96001,1.536012 -1.224,2.376 -0.26401,0.81601 -0.39601,1.5360098 -0.396,2.16 l 13.968,0"
           id="path3109"
           style="font-size:36px;font-variant:normal;font-weight:200;font-stretch:normal;writing-mode:lr-tb;fill:#000000;fill-opacity:1;fill-rule:nonzero;stroke:none;font-family:Avenir Next Ultra Light;-inkscape-font-specification:AvenirNext-UltraLight" />
        <path
           d="m 398.052,-12.204 c 0.24,-0.767987 0.588,-1.451986 1.044,-2.052 0.45599,-0.599985 0.97199,-1.103985 1.548,-1.512 0.57599,-0.431984 1.19999,-0.755983 1.872,-0.972 0.67199,-0.215983 1.36799,-0.323983 2.088,-0.324 1.15199,1.7e-5 2.11199,0.204017 2.88,0.612 0.76799,0.408016 1.37998,0.948016 1.836,1.62 0.45598,0.672014 0.77998,1.428013 0.972,2.268 0.19198,0.840012 0.28798,1.692011 0.288,2.556 l 0,10.008 -0.792,0 0,-9.936 c -2e-5,-0.671989 -0.072,-1.391989 -0.216,-2.16 -0.14402,-0.767987 -0.42002,-1.463986 -0.828,-2.088 -0.38401,-0.623985 -0.91201,-1.139985 -1.584,-1.548 -0.67201,-0.431984 -1.52401,-0.647984 -2.556,-0.648 -0.91201,1.6e-5 -1.77601,0.192016 -2.592,0.576 -0.79201,0.360015 -1.48801,0.888015 -2.088,1.584 -0.57601,0.696014 -1.04401,1.548013 -1.404,2.556 -0.336,0.984011 -0.504,2.1120096 -0.504,3.384 l 0,8.28 -0.792,0 0,-12.384 c 0,-0.263987 -0.012,-0.587987 -0.036,-0.972 0,-0.383986 -0.012,-0.767986 -0.036,-1.152 0,-0.407985 -0.012,-0.791985 -0.036,-1.152 -0.024,-0.359984 -0.048,-0.659984 -0.072,-0.9 l 0.792,0 c 0.024,0.240016 0.036,0.540016 0.036,0.9 0.024,0.360015 0.036,0.756015 0.036,1.188 0.024,0.408014 0.036,0.816014 0.036,1.224 0.024,0.384013 0.036,0.732013 0.036,1.044 l 0.072,0 0,0"
           id="path3111"
           style="font-size:36px;font-variant:normal;font-weight:200;font-stretch:normal;writing-mode:lr-tb;fill:#000000;fill-opacity:1;fill-rule:nonzero;stroke:none;font-family:Avenir Next Ultra Light;-inkscape-font-specification:AvenirNext-UltraLight" />
        <path
           d="m 441.108,0 0,-27.216 0.792,0 0,27.216 -0.792,0"
           id="path3113"
           style="font-size:36px;font-variant:normal;font-weight:200;font-stretch:normal;writing-mode:lr-tb;fill:#000000;fill-opacity:1;fill-rule:nonzero;stroke:none;font-family:Avenir Next Ultra Light;-inkscape-font-specification:AvenirNext-UltraLight" />
        <path
           d="m 467.82,-3.744 c -10e-6,0.6240031 0.024,1.2960024 0.072,2.016 0.072,0.696001 0.14399,1.27200046 0.216,1.728 l -0.756,0 c -0.048,-0.23999976 -0.084,-0.52799947 -0.108,-0.864 -0.024,-0.3599988 -0.06,-0.7199984 -0.108,-1.08 -0.024,-0.3839977 -0.048,-0.7559973 -0.072,-1.116 -1e-5,-0.3599966 -1e-5,-0.6599963 0,-0.9 l -0.108,0 c -0.48001,1.5120024 -1.30801,2.6400013 -2.484,3.384 -1.17601,0.71999986 -2.43601,1.0799995 -3.78,1.08 -0.672,-5e-7 -1.344,-0.0960004 -2.016,-0.288 -0.648,-0.19200002 -1.236,-0.47999974 -1.764,-0.864 -0.528,-0.383999 -0.96,-0.8759985 -1.296,-1.476 -0.312,-0.5999973 -0.468,-1.3079966 -0.468,-2.124 0,-1.1759946 0.3,-2.1239936 0.9,-2.844 0.624,-0.7199922 1.392,-1.2719916 2.304,-1.656 0.912,-0.4079908 1.884,-0.6719906 2.916,-0.792 1.05599,-0.1199903 2.01599,-0.1799903 2.88,-0.18 l 2.88,0 0,-1.332 c -1e-5,-1.847987 -0.49201,-3.191986 -1.476,-4.032 -0.98401,-0.863984 -2.26801,-1.295984 -3.852,-1.296 -0.984,1.6e-5 -1.908,0.180016 -2.772,0.54 -0.84,0.360015 -1.596,0.840015 -2.268,1.44 l -0.432,-0.612 c 0.768,-0.671984 1.632,-1.175984 2.592,-1.512 0.984,-0.359983 1.944,-0.539983 2.88,-0.54 1.89599,1.7e-5 3.38399,0.492017 4.464,1.476 1.10399,0.960015 1.65599,2.484013 1.656,4.572 l 0,7.272 m -0.792,-5.292 -2.556,0 c -0.91201,9e-6 -1.87201,0.060009 -2.88,0.18 -1.008,0.096009 -1.932,0.3120085 -2.772,0.648 -0.84,0.3360079 -1.536,0.8160074 -2.088,1.44 -0.528,0.6240061 -0.792,1.4640053 -0.792,2.52 0,0.7680035 0.144,1.4160028 0.432,1.944 0.312,0.5040018 0.696,0.9120014 1.152,1.224 0.48,0.31200077 0.996,0.54000054 1.548,0.684 0.576,0.14400025 1.116,0.21600018 1.62,0.216 1.22399,1.8e-7 2.24399,-0.22799959 3.06,-0.684 0.81599,-0.4559987 1.46399,-1.0319981 1.944,-1.728 0.50399,-0.7199967 0.85199,-1.4999959 1.044,-2.34 0.19199,-0.8639942 0.28799,-1.7039934 0.288,-2.52 l 0,-1.584"
           id="path3115"
           style="font-size:36px;font-variant:normal;font-weight:200;font-stretch:normal;writing-mode:lr-tb;fill:#000000;fill-opacity:1;fill-rule:nonzero;stroke:none;font-family:Avenir Next Ultra Light;-inkscape-font-specification:AvenirNext-UltraLight" />
        <path
           d="m 517.608,0 -18.288,-24.48 -0.108,0 0,24.48 -0.792,0 0,-25.488 1.116,0 18.324,24.444 0.108,0 0,-24.444 0.792,0 0,25.488 -1.152,0"
           id="path3117"
           style="font-size:36px;font-variant:normal;font-weight:200;font-stretch:normal;writing-mode:lr-tb;fill:#000000;fill-opacity:1;fill-rule:nonzero;stroke:none;font-family:Avenir Next Ultra Light;-inkscape-font-specification:AvenirNext-UltraLight" />
        <path
           d="m 545.688,-4.356 c -0.26401,0.7680036 -0.62401,1.4640029 -1.08,2.088 -0.43201,0.6000017 -0.93601,1.1040012 -1.512,1.512 -0.57601,0.40800035 -1.20001,0.72000004 -1.872,0.936 -0.67201,0.2159996 -1.36801,0.3239995 -2.088,0.324 -1.15201,-5e-7 -2.11201,-0.2040003 -2.88,-0.612 -0.768,-0.40799948 -1.38,-0.9479989 -1.836,-1.62 -0.456,-0.6719976 -0.78,-1.4279968 -0.972,-2.268 -0.192,-0.8399952 -0.288,-1.6919943 -0.288,-2.556 l 0,-10.008 0.792,0 0,9.936 c 0,0.6960059 0.072,1.4280052 0.216,2.196 0.144,0.7440037 0.408,1.428003 0.792,2.052 0.408,0.6240018 0.93599,1.1520012 1.584,1.584 0.67199,0.40800038 1.53599,0.61200018 2.592,0.612 0.91199,1.8e-7 1.76399,-0.17999964 2.556,-0.54 0.81599,-0.3839989 1.51199,-0.9239984 2.088,-1.62 0.59999,-0.695997 1.06799,-1.5359961 1.404,-2.52 0.35999,-1.0079941 0.53999,-2.147993 0.54,-3.42 l 0,-8.28 0.792,0 0,12.384 c -2e-5,0.2640039 -2e-5,0.5880036 0,0.972 0.024,0.3840028 0.036,0.7800024 0.036,1.188 0.024,0.3840016 0.048,0.7560013 0.072,1.116 0.024,0.36000054 0.048,0.66000024 0.072,0.9 l -0.792,0 c -0.024,-0.23999976 -0.048,-0.53999946 -0.072,-0.9 -2e-5,-0.3599987 -0.012,-0.7439984 -0.036,-1.152 -2e-5,-0.4319975 -0.012,-0.8399971 -0.036,-1.224 -2e-5,-0.4079963 -2e-5,-0.767996 0,-1.08 l -0.072,0 0,0"
           id="path3119"
           style="font-size:36px;font-variant:normal;font-weight:200;font-stretch:normal;writing-mode:lr-tb;fill:#000000;fill-opacity:1;fill-rule:nonzero;stroke:none;font-family:Avenir Next Ultra Light;-inkscape-font-specification:AvenirNext-UltraLight" />
        <path
           d="m 562.13999,-12.06 c 0.72,-1.655986 1.74,-2.903985 3.06,-3.744 1.34399,-0.839983 2.80799,-1.259983 4.392,-1.26 1.22399,1.7e-5 2.33999,0.228017 3.348,0.684 1.03199,0.432016 1.90799,1.044015 2.628,1.836 0.74398,0.768014 1.30798,1.692013 1.692,2.772 0.40798,1.080011 0.61198,2.2560095 0.612,3.528 -2e-5,1.248007 -0.20402,2.4120058 -0.612,3.492 -0.40802,1.0560037 -0.98402,1.9800028 -1.728,2.772 -0.72001,0.7680012 -1.59601,1.3800006 -2.628,1.836 -1.00801,0.43199971 -2.11201,0.6479995 -3.312,0.648 -0.79201,-5e-7 -1.57201,-0.1080004 -2.34,-0.324 -0.74401,-0.21599996 -1.44001,-0.52799965 -2.088,-0.936 -0.648,-0.4319988 -1.236,-0.9479983 -1.764,-1.548 -0.528,-0.6239971 -0.948,-1.3439964 -1.26,-2.16 l -0.108,0 0,4.464 -0.792,0 0,-27.216 0.792,0 0,15.156 0.108,0 m 14.94,3.816 c -2e-5,-1.0799907 -0.18002,-2.11199 -0.54,-3.096 -0.33602,-0.983988 -0.82801,-1.847987 -1.476,-2.592 -0.64801,-0.743985 -1.44001,-1.331985 -2.376,-1.764 -0.91201,-0.455984 -1.94401,-0.683984 -3.096,-0.684 -1.10401,1.6e-5 -2.12401,0.216016 -3.06,0.648 -0.912,0.432015 -1.704,1.020015 -2.376,1.764 -0.672,0.720013 -1.2,1.572012 -1.584,2.556 -0.384,0.98401 -0.576,2.0280094 -0.576,3.132 0,1.1040072 0.192,2.1480061 0.576,3.132 0.384,0.9840042 0.912,1.8480033 1.584,2.592 0.672,0.7200018 1.464,1.2960013 2.376,1.728 0.93599,0.4320004 1.95599,0.64800018 3.06,0.648 1.15199,1.8e-7 2.18399,-0.2159996 3.096,-0.648 0.93599,-0.4319987 1.72799,-1.0079982 2.376,-1.728 0.64799,-0.7439967 1.13998,-1.6079958 1.476,-2.592 0.35998,-0.9839939 0.53998,-2.0159928 0.54,-3.096"
           id="path3121"
           style="font-size:36px;font-variant:normal;font-weight:200;font-stretch:normal;writing-mode:lr-tb;fill:#000000;fill-opacity:1;fill-rule:nonzero;stroke:none;font-family:Avenir Next Ultra Light;-inkscape-font-specification:AvenirNext-UltraLight" />
        <path
           d="m 590.32802,-8.46 c -1e-5,1.0080075 0.14399,2.0040065 0.432,2.988 0.31199,0.9840045 0.76799,1.8720036 1.368,2.664 0.62399,0.768002 1.40399,1.3920014 2.34,1.872 0.93599,0.48000046 2.03999,0.72000022 3.312,0.72 1.29598,2.2e-7 2.44798,-0.25199953 3.456,-0.756 1.00798,-0.5279985 1.88398,-1.2839977 2.628,-2.268 l 0.576,0.504 c -0.81602,1.0560017 -1.77602,1.86000088 -2.88,2.412 -1.08002,0.55199977 -2.34002,0.8279995 -3.78,0.828 -1.22401,-5e-7 -2.34001,-0.21600029 -3.348,-0.648 -1.00801,-0.4559994 -1.88401,-1.0799988 -2.628,-1.872 -0.72001,-0.7919972 -1.28401,-1.7399962 -1.692,-2.844 -0.38401,-1.103994 -0.57601,-2.3039928 -0.576,-3.6 -10e-6,-1.2479903 0.20399,-2.399989 0.612,-3.456 0.40799,-1.055987 0.95999,-1.967986 1.656,-2.736 0.71999,-0.767985 1.55999,-1.355984 2.52,-1.764 0.95999,-0.431983 1.99199,-0.647983 3.096,-0.648 1.29598,1.7e-5 2.42398,0.228017 3.384,0.684 0.95998,0.456016 1.75198,1.056015 2.376,1.8 0.64798,0.744014 1.12798,1.596013 1.44,2.556 0.31198,0.936011 0.46798,1.89601 0.468,2.88 l 0,0.684 -14.76,0 m 14.004,-0.684 c -0.024,-1.07999 -0.21602,-2.063989 -0.576,-2.952 -0.33602,-0.887987 -0.80402,-1.643986 -1.404,-2.268 -0.60002,-0.647985 -1.32002,-1.139984 -2.16,-1.476 -0.84002,-0.359984 -1.77601,-0.539984 -2.808,-0.54 -1.24801,1.6e-5 -2.31601,0.264016 -3.204,0.792 -0.88801,0.504015 -1.62001,1.140014 -2.196,1.908 -0.55201,0.744013 -0.96001,1.536012 -1.224,2.376 -0.26401,0.81601 -0.39601,1.5360098 -0.396,2.16 l 13.968,0"
           id="path3123"
           style="font-size:36px;font-variant:normal;font-weight:200;font-stretch:normal;writing-mode:lr-tb;fill:#000000;fill-opacity:1;fill-rule:nonzero;stroke:none;font-family:Avenir Next Ultra Light;-inkscape-font-specification:AvenirNext-UltraLight" />
      </g>
    </g>
  </g>
</svg>
