<?xml version="1.0" encoding="UTF-8" standalone="no"?>
<!-- Created with Inkscape (http://www.inkscape.org/) -->

<svg
   xmlns:dc="http://purl.org/dc/elements/1.1/"
   xmlns:cc="http://creativecommons.org/ns#"
   xmlns:rdf="http://www.w3.org/1999/02/22-rdf-syntax-ns#"
   xmlns:svg="http://www.w3.org/2000/svg"
   xmlns="http://www.w3.org/2000/svg"
   version="1.2"
   width="360.18393"
   height="140.41121"
   id="svg2">
  <defs
     id="defs4" />
  <metadata
     id="metadata7">
    <rdf:RDF>
      <cc:Work
         rdf:about="">
        <dc:format>image/svg+xml</dc:format>
        <dc:type
           rdf:resource="http://purl.org/dc/dcmitype/StillImage" />
        <dc:title></dc:title>
      </cc:Work>
    </rdf:RDF>
  </metadata>
  <g
     transform="translate(-66.100448,-250.30106)"
     id="layer1">
    <g
       id="g3793">
      <path
         d="m 277.79195,341.21478 a 49.497475,49.497475 0 1 1 -98.99495,0 49.497475,49.497475 0 1 1 98.99495,0 z"
         id="path2985"
         style="fill:#00faff;fill-opacity:1;fill-rule:evenodd;stroke:none" />
      <path
         d="m 277.79195,341.21478 a 49.497475,49.497475 0 1 1 -98.99495,0 49.497475,49.497475 0 1 1 98.99495,0 z"
         transform="translate(40.406098,-41.416246)"
         id="path2985-0"
         style="fill:#00faff;fill-opacity:1;fill-rule:evenodd;stroke:none" />
      <path
         d="m 277.79195,341.21478 a 49.497475,49.497475 0 1 1 -98.99495,0 49.497475,49.497475 0 1 1 98.99495,0 z"
         transform="matrix(0.88887761,0,0,0.88887761,127.8991,4.0765019)"
         id="path2985-1"
         style="fill:#00faff;fill-opacity:1;fill-rule:evenodd;stroke:none" />
      <path
         d="m 277.79195,341.21478 a 49.497475,49.497475 0 1 1 -98.99495,0 49.497475,49.497475 0 1 1 98.99495,0 z"
         transform="translate(148.49241,8.4907033e-6)"
         id="path2985-3"
         style="fill:#00faff;fill-opacity:1;fill-rule:evenodd;stroke:none" />
      <rect
         width="151.52289"
         height="90.913727"
         x="222.23357"
         y="299.79852"
         id="rect3021"
         style="fill:#00faff;fill-opacity:1;fill-rule:evenodd;stroke:none" />
    </g>
    <g
       transform="matrix(2.3754971,0,0,2.3754971,-62.342167,-463.59764)"
       id="flowRoot3800"
       style="font-size:40px;font-style:normal;font-variant:normal;font-weight:bold;font-stretch:normal;text-align:start;line-height:125%;letter-spacing:0px;word-spacing:0px;writing-mode:lr-tb;text-anchor:start;fill:#ffffff;fill-opacity:1;stroke:none;font-family:Courier 10 Pitch;-inkscape-font-specification:Courier 10 Pitch Bold">
      <path
         d="m 122.6225,341.31583 -7.44,-13.56 c -0.8,-1.48 -1.2,-1.52 -2.32,-1.52 -0.04,0 -0.08,0 -0.16,0 l -3.2,0 c -1.6,0 -2.4,0.6 -2.4,2.16 0,1.4 0.76,2.16 2.12,2.16 0.08,0 0.2,0 0.28,0 l 0,14.56 c -0.12,0 -0.2,0 -0.32,0 -1.32,0 -2.08,0.76 -2.08,2.12 0,1.6 0.8,2.16 2.4,2.16 l 5.56,0 c 1.6,0 2.4,-0.56 2.4,-2.16 0,-1.6 -0.8,-2.12 -2.4,-2.12 l -1.08,0 0,-10.6 8.12,14.28 c 0.48,0.84 1.04,0.88 1.96,0.88 l 1.96,0 c 0.96,0 1.08,-0.24 1.08,-1.4 l 0,-17.72 c 0.08,0 0.2,0 0.28,0 1.36,0 2.12,-0.76 2.12,-2.16 0,-1.6 -0.8,-2.16 -2.4,-2.16 l -5.56,0 c -1.6,0 -2.4,0.56 -2.4,2.16 0,1.6 0.8,2.16 2.4,2.16 l 1.08,0 0,10.76"
         id="path4107" />
      <path
         d="m 133.085,330.55583 0,10.12 c 0,6.48 2.48001,9.32 9.2,9.32 6.47999,0 8.96,-2.96 8.96,-9.32 l 0,-10.12 c 0.12,0 0.2,0 0.32,0 1.4,0 2.12,-0.76 2.12,-2.16 0,-1.6 -0.76,-2.16 -2.44,-2.16 l -4.88,0 c -1.68,0 -2.44,0.56 -2.44,2.16 0,1.4 0.72,2.16 2.12,2.16 0.12,0 0.2,0 0.32,0 l 0,10.2 c 0,3.48 -1.08,5 -4.12,5 -3.12,0 -4.12,-1.56 -4.12,-5 l 0,-10.2 c 0.12,0 0.2,0 0.32,0 1.4,0 2.16,-0.76 2.16,-2.16 0,-1.6 -0.8,-2.16 -2.48,-2.16 l -5.04,0 c -1.68,0 -2.48,0.56 -2.48,2.16 0,1.4 0.76,2.16 2.16,2.16 0.12,0 0.2,0 0.32,0"
         id="path4109" />
      <path
         d="m 166.5475,349.39583 c 0.48,0 0.92,0 1.36,0 2.44,0 4.56,-0.12 6.48,-1.56 1.64,-1.24 2.52,-3.08 2.52,-5.12 0,-2.79999 -1.28,-4.56 -4.12,-5.6 1.72,-1 2.6,-2.56 2.6,-4.6 0,-3.99999 -2.80001,-6.28 -8.4,-6.28 l -9,0 c -1.64,0 -2.44,0.56 -2.44,2.16 0,1.4 0.76,2.16 2.12,2.16 0.12,0 0.2,0 0.32,0 l 0,14.56 c -0.12,0 -0.2,0 -0.32,0 -1.36,0 -2.12,0.72 -2.12,2.12 0,1.6 0.8,2.16 2.44,2.16 l 8.56,0 m -3.72,-14.04 0,-4.92 3.24,0 c 2.56,0 3.76,0.68001 3.76,2.44 0,1.92 -1.44,2.48 -4.4,2.48 l -2.6,0 m 0,9.88 0,-5.96 3.12,0 c 3.6,0 5.44,0.56001 5.44,3 0,2.32 -1.88,2.96 -5.64,2.96 l -2.92,0"
         id="path4111" />
      <path
         d="m 198.05,326.23583 -16,0 c -1.6,0 -2.4,0.6 -2.4,2.16 0,1.4 0.76,2.16 2.12,2.16 0.08,0 0.2,0 0.28,0 l 0,14.56 c -0.12,0 -0.2,0 -0.32,0 -1.32,0 -2.08,0.76 -2.08,2.12 0,1.6 0.8,2.16 2.4,2.16 l 16,0 c 1.64,0 2.04,-0.36 2.04,-1.76 l 0,-4.72 c 0,-1.64 -0.48,-2.44 -2.08,-2.44 -1.56,0 -2.12,0.76001 -2.12,2.44 l 0,2.32 -9.08,0 0,-5.84 3.44,0 c 0,0.12 0,0.24 0,0.36 0,1.4 0.68,2.08 2,2.08 1.48,0 2,-0.8 2,-2.44 l 0,-4.04 c 0,-1.64 -0.56,-2.44 -2.04,-2.44 -1.32,0 -2,0.72 -2,2.2 0,0.08 0,0.16 0,0.24 l -3.4,0 0,-5 9.08,0 0,2.04 c 0,1.64 0.52,2.48 2.12,2.48 1.56,0 2.08,-0.8 2.08,-2.48 l 0,-4.36 c 0,-1.4 -0.4,-1.8 -2.04,-1.8"
         id="path4113" />
    </g>
    <g
       transform="matrix(2.3754971,0,0,2.3754971,-188.79633,-462.88499)"
       id="flowRoot3800-7"
       style="font-size:40px;font-style:normal;font-variant:normal;font-weight:bold;font-stretch:normal;text-align:start;line-height:125%;letter-spacing:0px;word-spacing:0px;writing-mode:lr-tb;text-anchor:start;fill:#00faff;fill-opacity:1;stroke:none;font-family:Courier 10 Pitch;-inkscape-font-specification:Courier 10 Pitch Bold">
      <path
         d="m 124.2225,326.87583 c -1.92,-0.84 -3.72,-1.28 -5.6,-1.28 -6.67999,0 -11.32,5.36001 -11.32,12.2 0,7.2 4.56001,12.24 11.44,12.24 5.39999,0 9.84,-2.72 9.84,-4.8 0,-1.28 -0.8,-2.24 -1.8,-2.24 -1.76,0 -3.96,2.72 -7.64,2.72 -4,0 -6.24,-2.76 -6.24,-7.92 0,-5.19999 2.24,-7.92 6.2,-7.92 2.88,0 4.08,1.20001 4.72,3.48 0.36,1.24 0.8,1.84 2,1.84 1.64,0 2.04,-0.6 2.04,-2.28 l -0.04,-5.08 c 0,-1.67999 -0.52,-2.2 -1.76,-2.2 -0.88,0 -1.36,0.36 -1.84,1.24"
         id="path4116" />
      <path
         d="m 136.725,345.11583 0.84,-2.28 8.44,0 0.8,2.28 -0.68,0 c -1.64,0 -2.48,0.48 -2.48,2.12 0,1.64 0.84,2.16 2.48,2.16 l 5.88,0 c 1.64,0 2.48,-0.52 2.48,-2.16 0,-1.4 -0.76,-2.12 -2.16,-2.12 -0.08,0 -0.2,0 -0.32,0 l -6.2,-16.96 c -0.52,-1.44 -0.68,-1.92 -2.44,-1.92 l -7.32,0 c -1.68,0 -2.48,0.56 -2.48,2.16 0,1.64 0.8,2.16 2.44,2.16 l 1.6,0 -5.24,14.56 c -0.12,0 -0.24,0 -0.32,0 -1.4,0 -2.16,0.72 -2.16,2.12 0,1.64 0.84,2.16 2.48,2.16 l 5.04,0 c 1.64,0 2.48,-0.52 2.48,-2.16 0,-1.64 -0.84,-2.12 -2.48,-2.12 l -0.68,0 m 2.2,-6.32 2.84,-8.24 2.84,8.24 -5.68,0"
         id="path4118" />
    </g>
  </g>
</svg>
