<?xml version="1.0" encoding="UTF-8" standalone="no"?>
<!-- Created with Inkscape (http://www.inkscape.org/) -->

<svg
   xmlns:dc="http://purl.org/dc/elements/1.1/"
   xmlns:cc="http://creativecommons.org/ns#"
   xmlns:rdf="http://www.w3.org/1999/02/22-rdf-syntax-ns#"
   xmlns:svg="http://www.w3.org/2000/svg"
   xmlns="http://www.w3.org/2000/svg"
   xmlns:sodipodi="http://sodipodi.sourceforge.net/DTD/sodipodi-0.dtd"
   xmlns:inkscape="http://www.inkscape.org/namespaces/inkscape"
   id="svg3612"
   version="1.1"
   inkscape:version="0.48.2 r9819"
   width="1530"
   height="990"
   xml:space="preserve"
   sodipodi:docname="CANUBE.ai (1).ps"><metadata
     id="metadata3618"><rdf:RDF><cc:Work
         rdf:about=""><dc:format>image/svg+xml</dc:format><dc:type
           rdf:resource="http://purl.org/dc/dcmitype/StillImage" /><dc:title></dc:title></cc:Work></rdf:RDF></metadata><defs
     id="defs3616"><clipPath
       clipPathUnits="userSpaceOnUse"
       id="clipPath3628"><path
         d="m 10337.4,6502.91 -8434.82,0 0,-3675.03 8434.82,0 0,3675.03 z"
         id="path3630" /></clipPath><clipPath
       clipPathUnits="userSpaceOnUse"
       id="clipPath3634"><path
         d="m 1766.8,2692.96 9015.2,0 0,4817.57 -9015.2,0 0,-4817.57 z"
         id="path3636" /></clipPath><clipPath
       clipPathUnits="userSpaceOnUse"
       id="clipPath3638"><path
         d="m 10782,7510.53 -9015.2,0 0,-4817.57 9015.2,0 0,4817.57 z"
         id="path3640" /></clipPath><clipPath
       clipPathUnits="userSpaceOnUse"
       id="clipPath3642"><path
         d="m 1766.8,2692.96 9015.2,0 0,4817.57 -9015.2,0 0,-4817.57 z"
         id="path3644" /></clipPath><clipPath
       clipPathUnits="userSpaceOnUse"
       id="clipPath3646"><path
         d="m 1766,2692 0,4819 9016,0 0,-4819 -9016,0 z"
         id="path3648" /></clipPath><linearGradient
       x1="0"
       y1="0"
       x2="1"
       y2="0"
       gradientUnits="userSpaceOnUse"
       gradientTransform="matrix(-2.11e-4,-4817.58,-4817.58,2.11e-4,6274.39,7510.53)"
       spreadMethod="pad"
       id="linearGradient3650"><stop
         style="stop-opacity:1;stop-color:#ffffff"
         offset="0"
         id="stop3652" /><stop
         style="stop-opacity:1;stop-color:#231f20"
         offset="1"
         id="stop3654" /></linearGradient><mask
       maskUnits="userSpaceOnUse"
       x="0"
       y="0"
       width="1"
       height="1"
       id="mask3656"><g
         id="g3658"><g
           clip-path="url(#clipPath3634)"
           id="g3660"><g
             id="g3662"><g
               clip-path="url(#clipPath3638)"
               id="g3664"><g
                 id="g3666" /><g
                 id="g3668"><g
                   clip-path="url(#clipPath3642)"
                   id="g3670"><g
                     id="g3672"><g
                       clip-path="url(#clipPath3646)"
                       id="g3674"><path
                         d="m 1766,2692 9016,0 0,4819 -9016,0 0,-4819 z"
                         style="fill:url(#linearGradient3650);fill-opacity:1;fill-rule:nonzero;stroke:none"
                         id="path3676" /></g></g></g></g></g></g></g></g></mask><clipPath
       clipPathUnits="userSpaceOnUse"
       id="clipPath3682"><path
         d="m 1902.58,2827.88 8434.82,0 0,3675.03 -8434.82,0 0,-3675.03 z"
         id="path3684" /></clipPath><clipPath
       clipPathUnits="userSpaceOnUse"
       id="clipPath3686"><path
         d="m 10337.4,6502.91 -8434.82,0 0,-3675.03 8434.82,0 0,3675.03 z"
         id="path3688" /></clipPath></defs><sodipodi:namedview
     pagecolor="#ffffff"
     bordercolor="#666666"
     borderopacity="1"
     objecttolerance="10"
     gridtolerance="10"
     guidetolerance="10"
     inkscape:pageopacity="0"
     inkscape:pageshadow="2"
     inkscape:window-width="1440"
     inkscape:window-height="792"
     id="namedview3614"
     showgrid="false"
     inkscape:zoom="0.57979798"
     inkscape:cx="765"
     inkscape:cy="495"
     inkscape:window-x="0"
     inkscape:window-y="0"
     inkscape:window-maximized="1"
     inkscape:current-layer="g3620" /><g
     id="g3620"
     inkscape:groupmode="layer"
     inkscape:label="ink_ext_XXXXXX"
     transform="matrix(1.25,0,0,-1.25,0,990)"><g
       id="g3624"
       transform="scale(0.1,0.1)"><g
         clip-path="url(#clipPath3628)"
         id="g3626"><g
           id="g3632" /><g
           mask="url(#mask3656)"
           id="g3678"><g
             id="g3680" /><g
             id="g3690"><g
               id="g3692"
               clip-path="url(#clipPath3682)"><g
                 id="g3694"><g
                   id="g3696"
                   clip-path="url(#clipPath3686)"><path
                     inkscape:connector-curvature="0"
                     id="path3698"
                     style="fill:#27d6f2;fill-opacity:1;fill-rule:nonzero;stroke:none"
                     d="m 9270.75,4971.21 c -185.2,0 -359.34,-47.25 -511.15,-130.27 1.56,23.48 2.42,47.17 2.42,71.05 0,589.11 -477.56,1066.67 -1066.65,1066.67 -212.2,0 -409.9,-61.99 -576.04,-168.8 -151.43,404.82 -541.7,693.05 -999.34,693.05 -457.66,0 -847.89,-288.23 -999.33,-693.04 -166.15,106.81 -363.86,168.79 -576.05,168.79 -589.09,0 -1066.65,-477.56 -1066.65,-1066.67 0,-20.03 0.62,-39.93 1.67,-59.72 -151.6,82.8 -325.48,129.87 -510.38,129.87 -589.12,0 -1066.67,-477.56 -1066.67,-1066.67 0,-241.87 83.42,-479.58 235.06,-668.08 149.49,-185.8 360.4,-318.65 592.97,-371.8 140.84,-32.18 291.31,-47.91 435.8,-47.71 81.62,0.14 163.24,0 244.84,0 l 5785.96,0 c 78.33,0 162.92,10.8 240.3,22.93 60.11,9.47 119.38,24.06 176.98,43.61 112.55,38.32 218.44,95.69 312.17,168.87 187.74,146.6 323.54,355.33 380.24,586.84 20.4,83.2 30.5,168.75 30.5,254.42 0,589.08 -477.54,1066.66 -1066.65,1066.66" /></g></g></g></g></g></g></g><path
       inkscape:connector-curvature="0"
       id="path3700"
       style="fill:#231f20;fill-opacity:1;fill-rule:nonzero;stroke:none"
       d="m 374.753,151.568 c -7.102,-2.743 -14.332,-4.121 -21.691,-4.121 -8.295,0 -15.861,1.453 -22.703,4.355 -6.841,2.902 -12.751,6.92 -17.726,12.052 -4.977,5.13 -8.84,11.273 -11.585,18.425 -2.748,7.152 -4.121,14.928 -4.121,23.325 0,8.396 1.373,16.171 4.121,23.323 2.745,7.155 6.608,13.295 11.585,18.428 4.975,5.131 10.908,9.147 17.804,12.051 6.893,2.9 14.434,4.353 22.625,4.353 6.841,0 13.502,-1.166 19.981,-3.498 6.478,-2.334 11.997,-5.884 16.561,-10.652 l -2.177,-2.488 c -2.178,2.279 -4.641,4.277 -7.387,5.986 -2.748,1.711 -5.651,3.136 -8.708,4.277 -3.058,1.139 -6.142,1.968 -9.252,2.489 -3.109,0.517 -6.117,0.777 -9.018,0.777 -7.879,0 -15.059,-1.428 -21.537,-4.277 -6.48,-2.852 -12.026,-6.764 -16.638,-11.741 -4.613,-4.973 -8.19,-10.805 -10.729,-17.492 -2.542,-6.686 -3.81,-13.867 -3.81,-21.536 0,-7.673 1.244,-14.85 3.732,-21.536 2.488,-6.688 6.038,-12.518 10.652,-17.493 4.611,-4.978 10.158,-8.891 16.638,-11.741 6.477,-2.852 13.708,-4.275 21.692,-4.275 6.841,0 13.606,1.32 20.292,3.964 6.686,2.643 12.207,6.609 16.56,11.895 l 2.488,-2.332 c -4.665,-5.598 -10.549,-9.772 -17.649,-12.518" /><path
       inkscape:connector-curvature="0"
       id="path3702"
       style="fill:#231f20;fill-opacity:1;fill-rule:nonzero;stroke:none"
       d="m 449.004,258.473 -31.255,-73.395 61.577,0 -30.322,73.395 z m 44.473,-107.914 -13.063,31.564 -63.909,0 -13.527,-31.564 -3.733,0 47.738,110.092 4.354,0 45.871,-110.092" /><path
       inkscape:connector-curvature="0"
       id="path3704"
       style="fill:#231f20;fill-opacity:1;fill-rule:nonzero;stroke:none"
       d="m 592.681,166.885 0.312,0 0,93.766 11.195,0 0,-110.092 -13.994,0 -64.066,94.697 -0.31,0 0,-94.697 -11.197,0 0,110.092 13.996,0" /><path
       inkscape:connector-curvature="0"
       id="path3706"
       style="fill:#231f20;fill-opacity:1;fill-rule:nonzero;stroke:none"
       d="m 674.004,147.76 c -8.295,0 -15.083,1.426 -20.37,4.275 -5.287,2.85 -9.485,6.454 -12.595,10.807 -3.11,4.354 -5.263,9.098 -6.453,14.229 -1.193,5.13 -1.788,9.976 -1.788,14.539 l 0,69.041 11.195,0 0,-67.797 c 0,-4.459 0.518,-8.785 1.555,-12.985 1.035,-4.199 2.722,-7.929 5.054,-11.195 2.333,-3.266 5.416,-5.91 9.252,-7.932 3.834,-2.019 8.552,-3.031 14.15,-3.031 5.598,0 10.314,1.012 14.15,3.031 3.834,2.022 6.92,4.666 9.252,7.932 2.333,3.266 4.017,6.996 5.054,11.195 1.035,4.2 1.555,8.526 1.555,12.985 l 0,67.797 11.196,0 0,-69.041 c 0,-4.563 -0.598,-9.409 -1.788,-14.539 -1.193,-5.131 -3.344,-9.875 -6.453,-14.229 -3.111,-4.353 -7.335,-7.957 -12.673,-10.807 -5.341,-2.849 -12.105,-4.275 -20.293,-4.275" /><path
       inkscape:connector-curvature="0"
       id="path3708"
       style="fill:#231f20;fill-opacity:1;fill-rule:nonzero;stroke:none"
       d="m 755.017,160.199 20.837,0 c 4.042,0 7.903,0.389 11.584,1.166 3.679,0.777 6.892,2.022 9.641,3.732 2.746,1.709 4.949,3.938 6.609,6.686 1.656,2.746 2.487,6.037 2.487,9.875 0,7.254 -2.464,12.672 -7.386,16.248 -4.925,3.576 -11.895,5.365 -20.914,5.365 l -22.858,0 0,-43.072 z m 0,52.246 22.547,0 c 2.694,0 5.416,0.311 8.164,0.934 2.745,0.621 5.26,1.683 7.541,3.187 2.279,1.502 4.12,3.498 5.52,5.987 1.4,2.488 2.099,5.544 2.099,9.173 0,3.524 -0.699,6.506 -2.099,8.942 -1.4,2.435 -3.293,4.431 -5.675,5.986 -2.386,1.557 -5.185,2.668 -8.397,3.344 -3.215,0.674 -6.637,1.012 -10.263,1.012 l -19.437,0 0,-38.565 z m -11.196,48.205 32.809,0 c 4.146,0 8.343,-0.443 12.596,-1.322 4.25,-0.883 8.06,-2.387 11.429,-4.51 3.368,-2.125 6.116,-5.002 8.241,-8.629 2.124,-3.631 3.188,-8.191 3.188,-13.683 0,-5.809 -1.773,-10.862 -5.316,-15.162 -3.542,-4.303 -8.285,-7.129 -14.223,-8.475 l 0,-0.311 c 7.138,-0.832 13.06,-3.603 17.766,-8.318 4.706,-4.719 7.06,-11.119 7.06,-19.205 0,-4.563 -0.959,-8.734 -2.873,-12.518 -1.914,-3.785 -4.627,-6.996 -8.145,-9.64 -3.519,-2.643 -7.812,-4.692 -12.88,-6.143 -5.068,-1.453 -10.759,-2.176 -17.065,-2.176 l -32.587,0" /><path
       inkscape:connector-curvature="0"
       id="path3710"
       style="fill:#231f20;fill-opacity:1;fill-rule:nonzero;stroke:none"
       d="m 853.91,160.51 58.934,0 0,-9.951 -70.13,0 0,110.092 68.263,0 0,-9.953 -57.067,0 0,-37.786 53.335,0 0,-9.951 -53.335,0" /><path
       inkscape:connector-curvature="0"
       id="path3712"
       style="fill:#231f20;fill-opacity:1;fill-rule:nonzero;stroke:none"
       d="m 432.197,530.884 c 0,-12.358 -10.018,-22.377 -22.38,-22.377 -12.357,0 -22.377,10.019 -22.377,22.377 0,12.36 10.02,22.379 22.377,22.379 12.362,0 22.38,-10.019 22.38,-22.379" /><path
       inkscape:connector-curvature="0"
       id="path3714"
       style="fill:#231f20;fill-opacity:1;fill-rule:nonzero;stroke:none"
       d="m 564.165,370.888 c 0,-12.362 -10.019,-22.378 -22.379,-22.378 -12.358,0 -22.377,10.016 -22.377,22.378 0,12.358 10.019,22.376 22.377,22.376 12.36,0 22.379,-10.018 22.379,-22.376" /><path
       inkscape:connector-curvature="0"
       id="path3716"
       style="fill:#231f20;fill-opacity:1;fill-rule:nonzero;stroke:none"
       d="m 733.007,431.768 c 0,-20.01 -16.222,-36.231 -36.234,-36.231 -20.01,0 -36.233,16.221 -36.233,36.231 0,20.012 16.223,36.234 36.233,36.234 20.012,0 36.234,-16.222 36.234,-36.234" /><path
       inkscape:connector-curvature="0"
       id="path3718"
       style="fill:#231f20;fill-opacity:1;fill-rule:nonzero;stroke:none"
       d="m 898.818,656.084 c 0,-12.359 -10.02,-22.377 -22.38,-22.377 -12.358,0 -22.377,10.018 -22.377,22.377 0,12.359 10.019,22.378 22.377,22.378 12.36,0 22.38,-10.019 22.38,-22.378" /><path
       inkscape:connector-curvature="0"
       id="path3720"
       style="fill:none;stroke:#231f20;stroke-width:4.26300001;stroke-linecap:butt;stroke-linejoin:miter;stroke-miterlimit:10;stroke-opacity:1;stroke-dasharray:none"
       d="m 409.818,530.884 131.968,-159.997 154.986,60.88 179.667,224.316" /><path
       inkscape:connector-curvature="0"
       id="path3722"
       style="fill:#231f20;fill-opacity:1;fill-rule:nonzero;stroke:none"
       d="m 682.919,513.484 c 0,-12.359 -10.018,-22.378 -22.379,-22.378 -12.357,0 -22.377,10.019 -22.377,22.378 0,12.359 10.02,22.378 22.377,22.378 12.361,0 22.379,-10.019 22.379,-22.378" /><path
       inkscape:connector-curvature="0"
       id="path3724"
       style="fill:#231f20;fill-opacity:1;fill-rule:nonzero;stroke:none"
       d="m 842.689,359.297 c 0,-12.361 -10.018,-22.377 -22.378,-22.377 -12.358,0 -22.377,10.016 -22.377,22.377 0,12.36 10.019,22.377 22.377,22.377 12.36,0 22.378,-10.017 22.378,-22.377" /><path
       inkscape:connector-curvature="0"
       id="path3726"
       style="fill:none;stroke:#231f20;stroke-width:4.26300001;stroke-linecap:butt;stroke-linejoin:miter;stroke-miterlimit:10;stroke-opacity:1;stroke-dasharray:none"
       d="m 660.54,513.484 36.232,-81.716 123.539,-72.471" /><path
       inkscape:connector-curvature="0"
       id="path3728"
       style="fill:#000000;fill-opacity:1;fill-rule:nonzero;stroke:none"
       d="m 331.611,97.2344 c -1.646,-0.636 -3.318,-0.9539 -5.023,-0.9539 -1.92,0 -3.672,0.3359 -5.256,1.0078 -1.584,0.6722 -2.952,1.6012 -4.105,2.7907 -1.15,1.186 -2.046,2.609 -2.681,4.264 -0.635,1.657 -0.955,3.456 -0.955,5.402 0,1.943 0.32,3.743 0.955,5.398 0.635,1.656 1.531,3.078 2.681,4.268 1.153,1.186 2.527,2.116 4.122,2.789 1.597,0.672 3.342,1.009 5.239,1.009 1.584,0 3.126,-0.271 4.626,-0.811 1.5,-0.539 2.777,-1.362 3.834,-2.467 l -0.503,-0.575 c -0.505,0.528 -1.075,0.989 -1.711,1.387 -0.636,0.395 -1.309,0.725 -2.016,0.989 -0.709,0.264 -1.422,0.456 -2.143,0.575 -0.719,0.12 -1.416,0.181 -2.087,0.181 -1.825,0 -3.486,-0.329 -4.986,-0.99 -1.5,-0.66 -2.784,-1.567 -3.852,-2.718 -1.069,-1.151 -1.896,-2.501 -2.485,-4.05 -0.588,-1.549 -0.881,-3.21 -0.881,-4.985 0,-1.777 0.288,-3.44 0.864,-4.988 0.576,-1.546 1.397,-2.896 2.466,-4.048 1.067,-1.1535 2.351,-2.0598 3.852,-2.7188 1.499,-0.6597 3.173,-0.9898 5.022,-0.9898 1.584,0 3.15,0.3051 4.698,0.918 1.548,0.6121 2.826,1.53 3.834,2.7536 l 0.576,-0.541 c -1.08,-1.2947 -2.442,-2.2615 -4.085,-2.8966" /><path
       inkscape:connector-curvature="0"
       id="path3730"
       style="fill:#000000;fill-opacity:1;fill-rule:nonzero;stroke:none"
       d="m 347.936,113.56 0.792,0 0,-16.56 -0.792,0 0,16.56 z m 0.396,6.228 c -0.217,0 -0.409,0.084 -0.576,0.252 -0.168,0.168 -0.252,0.396 -0.252,0.684 0,0.264 0.084,0.48 0.252,0.648 0.167,0.168 0.359,0.252 0.576,0.252 0.216,0 0.407,-0.084 0.575,-0.252 0.168,-0.168 0.253,-0.384 0.253,-0.648 0,-0.288 -0.091,-0.516 -0.27,-0.684 -0.18,-0.168 -0.367,-0.252 -0.558,-0.252" /><path
       inkscape:connector-curvature="0"
       id="path3732"
       style="fill:#000000;fill-opacity:1;fill-rule:nonzero;stroke:none"
       d="m 376.628,106.144 c -0.024,1.079 -0.211,2.063 -0.559,2.952 -0.347,0.888 -0.822,1.65 -1.421,2.286 -0.6,0.636 -1.321,1.128 -2.161,1.477 -0.839,0.346 -1.776,0.521 -2.807,0.521 -1.248,0 -2.317,-0.257 -3.204,-0.773 -0.888,-0.518 -1.615,-1.152 -2.178,-1.909 -0.565,-0.755 -0.979,-1.547 -1.242,-2.375 -0.265,-0.828 -0.397,-1.555 -0.397,-2.179 l 13.969,0 z m -14.004,-0.684 c 0,-1.007 0.15,-2.005 0.449,-2.989 0.3,-0.983 0.757,-1.866 1.368,-2.6444 0.613,-0.7809 1.386,-1.411 2.323,-1.8911 0.935,-0.48 2.04,-0.7199 3.311,-0.7199 1.297,0 2.449,0.2578 3.456,0.775 1.009,0.5149 1.884,1.2649 2.628,2.2504 l 0.576,-0.5043 c -0.816,-1.057 -1.769,-1.8609 -2.861,-2.4121 -1.093,-0.5519 -2.358,-0.8281 -3.799,-0.8281 -1.223,0 -2.34,0.2211 -3.347,0.666 -1.008,0.443 -1.878,1.0609 -2.611,1.8531 -0.732,0.7918 -1.296,1.7394 -1.691,2.8454 -0.397,1.103 -0.594,2.303 -0.594,3.599 0,1.247 0.204,2.4 0.612,3.456 0.41,1.055 0.969,1.968 1.679,2.737 0.71,0.767 1.545,1.361 2.508,1.781 0.962,0.42 1.996,0.63 3.102,0.63 1.299,0 2.43,-0.228 3.392,-0.684 0.962,-0.457 1.763,-1.057 2.4,-1.8 0.637,-0.744 1.113,-1.589 1.425,-2.538 0.314,-0.948 0.47,-1.914 0.47,-2.898 l 0,-0.684" /><path
       inkscape:connector-curvature="0"
       id="path3734"
       style="fill:#000000;fill-opacity:1;fill-rule:nonzero;stroke:none"
       d="m 392.468,111.256 c 0.455,0.6 0.972,1.11 1.548,1.53 0.576,0.42 1.199,0.739 1.872,0.954 0.671,0.216 1.368,0.325 2.088,0.325 1.151,0 2.111,-0.205 2.88,-0.613 0.767,-0.408 1.38,-0.948 1.836,-1.62 0.456,-0.672 0.779,-1.428 0.971,-2.267 0.193,-0.841 0.288,-1.693 0.288,-2.557 l 0,-10.008 -0.792,0 0,9.936 c 0,0.672 -0.071,1.391 -0.215,2.16 -0.144,0.768 -0.414,1.464 -0.81,2.088 -0.396,0.624 -0.931,1.146 -1.603,1.566 -0.671,0.42 -1.524,0.63 -2.555,0.63 -0.912,0 -1.771,-0.187 -2.574,-0.558 -0.805,-0.373 -1.5,-0.906 -2.088,-1.602 -0.589,-0.696 -1.057,-1.542 -1.405,-2.538 -0.347,-0.996 -0.521,-2.13 -0.521,-3.402 l 0,-8.28 -0.792,0 0,12.384 c 0,0.264 -0.007,0.588 -0.019,0.973 -0.011,0.382 -0.023,0.773 -0.036,1.17 -0.011,0.395 -0.03,0.773 -0.053,1.133 -0.025,0.36 -0.048,0.659 -0.073,0.9 l 0.792,0 c 0.025,-0.241 0.042,-0.54 0.055,-0.9 0.012,-0.36 0.023,-0.751 0.036,-1.17 0.012,-0.421 0.024,-0.828 0.035,-1.224 0.013,-0.396 0.019,-0.75 0.019,-1.062 l 0.072,0 c 0.239,0.768 0.588,1.452 1.044,2.052" /><path
       inkscape:connector-curvature="0"
       id="path3736"
       style="fill:#000000;fill-opacity:1;fill-rule:nonzero;stroke:none"
       d="m 430.088,111.328 c -0.625,0.647 -1.356,1.152 -2.196,1.512 -0.841,0.36 -1.717,0.54 -2.628,0.54 -1.177,0 -2.233,-0.222 -3.168,-0.666 -0.937,-0.445 -1.735,-1.038 -2.395,-1.782 -0.66,-0.745 -1.17,-1.608 -1.529,-2.592 -0.36,-0.985 -0.54,-2.016 -0.54,-3.096 0,-1.08 0.18,-2.112 0.54,-3.096 0.359,-0.984 0.869,-1.842 1.529,-2.5738 0.66,-0.732 1.458,-1.314 2.395,-1.7461 0.935,-0.432 1.991,-0.648 3.168,-0.648 0.911,0 1.805,0.1558 2.681,0.4679 0.876,0.3122 1.638,0.7801 2.287,1.404 l 0.54,-0.504 c -0.72,-0.7199 -1.567,-1.2418 -2.538,-1.566 -0.972,-0.3238 -1.962,-0.4859 -2.97,-0.4859 -1.225,0 -2.347,0.216 -3.366,0.6469 -1.021,0.4332 -1.909,1.0332 -2.664,1.8011 -0.756,0.768 -1.345,1.6919 -1.764,2.7719 -0.421,1.08 -0.63,2.256 -0.63,3.528 0,1.272 0.209,2.448 0.63,3.528 0.419,1.079 1.008,2.01 1.764,2.789 0.755,0.781 1.643,1.393 2.664,1.837 1.019,0.444 2.141,0.666 3.366,0.666 1.055,0 2.057,-0.192 3.006,-0.576 0.947,-0.385 1.757,-0.925 2.429,-1.62" /><path
       inkscape:connector-curvature="0"
       id="path3738"
       style="fill:#000000;fill-opacity:1;fill-rule:nonzero;stroke:none"
       d="m 442.76,113.56 0.792,0 0,-16.56 -0.792,0 0,16.56 z m 0.396,6.228 c -0.217,0 -0.409,0.084 -0.576,0.252 -0.168,0.168 -0.252,0.396 -0.252,0.684 0,0.264 0.084,0.48 0.252,0.648 0.167,0.168 0.359,0.252 0.576,0.252 0.216,0 0.407,-0.084 0.575,-0.252 0.168,-0.168 0.253,-0.384 0.253,-0.648 0,-0.288 -0.09,-0.516 -0.27,-0.684 -0.18,-0.168 -0.366,-0.252 -0.558,-0.252" /><path
       inkscape:connector-curvature="0"
       id="path3740"
       style="fill:#000000;fill-opacity:1;fill-rule:nonzero;stroke:none"
       d="m 468.68,106.036 -2.556,0 c -0.912,0 -1.872,-0.054 -2.88,-0.162 -1.008,-0.109 -1.932,-0.33 -2.772,-0.666 -0.84,-0.336 -1.53,-0.817 -2.07,-1.441 -0.539,-0.624 -0.81,-1.463 -0.81,-2.519 0,-0.769 0.15,-1.4097 0.45,-1.9257 0.3,-0.5161 0.684,-0.9313 1.152,-1.2422 0.468,-0.3129 0.984,-0.5399 1.549,-0.684 0.563,-0.1441 1.097,-0.216 1.601,-0.216 1.224,0 2.244,0.2281 3.061,0.684 0.815,0.455 1.469,1.0371 1.962,1.7461 0.491,0.7068 0.833,1.4878 1.025,2.3398 0.192,0.852 0.288,1.686 0.288,2.502 l 0,1.584 z m 0.792,-5.292 c 0,-0.625 0.03,-1.2897 0.09,-1.9979 0.059,-0.7078 0.126,-1.2899 0.198,-1.7461 l -0.756,0 c -0.049,0.2391 -0.084,0.534 -0.108,0.882 -0.024,0.3473 -0.054,0.7082 -0.09,1.0801 -0.036,0.3719 -0.06,0.7379 -0.072,1.0969 -0.012,0.361 -0.018,0.661 -0.018,0.901 l -0.108,0 c -0.48,-1.512 -1.308,-2.6338 -2.484,-3.3659 -1.176,-0.732 -2.436,-1.098 -3.78,-1.098 -0.672,0 -1.338,0.0961 -1.998,0.2879 -0.66,0.1922 -1.254,0.4801 -1.782,0.864 -0.529,0.3832 -0.954,0.875 -1.278,1.4762 -0.324,0.6 -0.486,1.3078 -0.486,2.1238 0,1.176 0.306,2.124 0.918,2.844 0.612,0.719 1.374,1.278 2.286,1.673 0.912,0.397 1.89,0.655 2.934,0.775 1.044,0.12 1.998,0.18 2.862,0.18 l 2.88,0 0,1.332 c 0,1.847 -0.492,3.198 -1.476,4.049 -0.984,0.853 -2.268,1.279 -3.852,1.279 -0.984,0 -1.902,-0.18 -2.754,-0.54 -0.852,-0.36 -1.614,-0.84 -2.286,-1.44 l -0.432,0.612 c 0.768,0.671 1.638,1.181 2.611,1.53 0.971,0.348 1.925,0.522 2.861,0.522 1.895,0 3.39,-0.486 4.482,-1.458 1.092,-0.972 1.638,-2.503 1.638,-4.591" /><path
       inkscape:connector-curvature="0"
       id="path3742"
       style="fill:#000000;fill-opacity:1;fill-rule:nonzero;stroke:none"
       d="m 507.775,121.984 -7.236,-16.991 14.257,0 -7.021,16.991 z m 10.296,-24.9836 -3.024,7.3066 -14.795,0 -3.132,-7.3066 -0.865,0 11.052,25.4876 1.008,0 10.621,-25.4876" /><path
       inkscape:connector-curvature="0"
       id="path3744"
       style="fill:#000000;fill-opacity:1;fill-rule:nonzero;stroke:none"
       d="m 546.295,105.244 c 0,1.08 -0.174,2.111 -0.521,3.096 -0.347,0.984 -0.844,1.847 -1.49,2.591 -0.646,0.745 -1.43,1.338 -2.352,1.783 -0.922,0.444 -1.958,0.666 -3.107,0.666 -1.101,0 -2.113,-0.216 -3.035,-0.648 -0.922,-0.432 -1.718,-1.014 -2.388,-1.746 -0.67,-0.732 -1.198,-1.591 -1.581,-2.574 -0.382,-0.984 -0.574,-2.028 -0.574,-3.132 0,-1.104 0.192,-2.148 0.574,-3.132 0.383,-0.984 0.911,-1.842 1.581,-2.5738 0.67,-0.732 1.466,-1.314 2.388,-1.7461 0.922,-0.432 1.934,-0.648 3.035,-0.648 1.149,0 2.185,0.216 3.107,0.648 0.922,0.4321 1.706,1.0141 2.352,1.7461 0.646,0.7318 1.143,1.5898 1.49,2.5738 0.347,0.984 0.521,2.016 0.521,3.096 m -14.903,3.815 c 0.717,1.657 1.741,2.905 3.07,3.745 1.328,0.839 2.784,1.26 4.364,1.26 1.221,0 2.34,-0.222 3.359,-0.666 1.017,-0.444 1.891,-1.056 2.622,-1.837 0.729,-0.779 1.293,-1.71 1.687,-2.789 0.396,-1.08 0.593,-2.257 0.593,-3.528 0,-1.248 -0.203,-2.406 -0.61,-3.475 -0.408,-1.067 -0.977,-1.992 -1.706,-2.771 -0.731,-0.78 -1.605,-1.3929 -2.622,-1.8359 -1.019,-0.4441 -2.125,-0.666 -3.323,-0.666 -0.79,0 -1.562,0.107 -2.316,0.3238 -0.755,0.216 -1.455,0.5332 -2.102,0.9543 -0.646,0.4188 -1.233,0.936 -1.759,1.5481 -0.528,0.6109 -0.947,1.3247 -1.257,2.1417 l -0.109,0 0,-4.464 -0.828,0 0,27.216 0.828,0 0,-15.157" /><path
       inkscape:connector-curvature="0"
       id="path3746"
       style="fill:#000000;fill-opacity:1;fill-rule:nonzero;stroke:none"
       d="m 560.19,113.56 0.792,0 0,-16.56 -0.792,0 0,16.56 z m 0.397,6.228 c -0.217,0 -0.409,0.084 -0.576,0.252 -0.168,0.168 -0.252,0.396 -0.252,0.684 0,0.264 0.084,0.48 0.252,0.648 0.167,0.168 0.359,0.252 0.576,0.252 0.216,0 0.407,-0.084 0.575,-0.252 0.168,-0.168 0.253,-0.384 0.253,-0.648 0,-0.288 -0.091,-0.516 -0.27,-0.684 -0.18,-0.168 -0.367,-0.252 -0.558,-0.252" /><path
       inkscape:connector-curvature="0"
       id="path3748"
       style="fill:#000000;fill-opacity:1;fill-rule:nonzero;stroke:none"
       d="m 588.883,106.144 c -0.024,1.079 -0.211,2.063 -0.559,2.952 -0.347,0.888 -0.822,1.65 -1.421,2.286 -0.6,0.636 -1.321,1.128 -2.161,1.477 -0.839,0.346 -1.776,0.521 -2.807,0.521 -1.248,0 -2.317,-0.257 -3.204,-0.773 -0.888,-0.518 -1.615,-1.152 -2.178,-1.909 -0.565,-0.755 -0.979,-1.547 -1.242,-2.375 -0.265,-0.828 -0.397,-1.555 -0.397,-2.179 l 13.969,0 z m -14.004,-0.684 c 0,-1.007 0.15,-2.005 0.449,-2.989 0.3,-0.983 0.757,-1.866 1.368,-2.6444 0.613,-0.7809 1.386,-1.411 2.323,-1.8911 0.935,-0.48 2.04,-0.7199 3.311,-0.7199 1.297,0 2.449,0.2578 3.456,0.775 1.009,0.5149 1.884,1.2649 2.628,2.2504 l 0.576,-0.5043 c -0.816,-1.057 -1.769,-1.8609 -2.861,-2.4121 -1.093,-0.5519 -2.358,-0.8281 -3.799,-0.8281 -1.223,0 -2.34,0.2211 -3.347,0.666 -1.008,0.443 -1.878,1.0609 -2.611,1.8531 -0.732,0.7918 -1.296,1.7394 -1.691,2.8454 -0.397,1.103 -0.594,2.303 -0.594,3.599 0,1.247 0.204,2.4 0.612,3.456 0.41,1.055 0.969,1.968 1.679,2.737 0.71,0.767 1.545,1.361 2.508,1.781 0.962,0.42 1.996,0.63 3.102,0.63 1.299,0 2.43,-0.228 3.392,-0.684 0.962,-0.457 1.763,-1.057 2.4,-1.8 0.637,-0.744 1.113,-1.589 1.425,-2.538 0.314,-0.948 0.47,-1.914 0.47,-2.898 l 0,-0.684" /><path
       inkscape:connector-curvature="0"
       id="path3750"
       style="fill:#000000;fill-opacity:1;fill-rule:nonzero;stroke:none"
       d="m 605.982,112.93 c 1.056,0.756 2.197,1.135 3.42,1.135 l 0.325,0 c 0.095,0 0.202,-0.013 0.323,-0.036 l 0,-0.685 c -0.096,0.023 -0.186,0.036 -0.27,0.036 l -0.198,0 c -1.055,0 -1.955,-0.233 -2.7,-0.702 -0.744,-0.468 -1.355,-1.08 -1.837,-1.836 -0.479,-0.756 -0.834,-1.596 -1.061,-2.519 -0.229,-0.925 -0.341,-1.843 -0.341,-2.754 l 0,-8.5694 -0.793,0 0,12.3844 c 0,0.264 -0.007,0.588 -0.018,0.973 -0.012,0.383 -0.023,0.773 -0.037,1.17 -0.011,0.395 -0.029,0.773 -0.052,1.133 -0.025,0.36 -0.048,0.66 -0.073,0.9 l 0.791,0 c 0.025,-0.24 0.043,-0.54 0.055,-0.9 0.013,-0.36 0.025,-0.751 0.036,-1.169 0.012,-0.421 0.025,-0.829 0.036,-1.225 0.012,-0.396 0.019,-0.75 0.019,-1.062 l 0.072,0 c 0.48,1.728 1.246,2.97 2.303,3.726" /><path
       inkscape:connector-curvature="0"
       id="path3752"
       style="fill:#000000;fill-opacity:1;fill-rule:nonzero;stroke:none"
       d="m 626.286,96.6758 c -0.385,-0.0719 -0.756,-0.107 -1.116,-0.107 -1.296,0 -2.22,0.366 -2.772,1.0968 -0.552,0.7321 -0.828,1.65 -0.828,2.7544 l 0,12.456 -3.6,0 0,0.684 3.564,0 0,4.86 0.792,0 0,-4.86 4.859,0 0,-0.684 -4.859,0 0,-12.456 c 0,-1.1282 0.275,-1.9384 0.828,-2.4302 0.552,-0.4921 1.283,-0.7378 2.195,-0.7378 0.672,0 1.285,0.1089 1.836,0.3238 l 0.109,-0.6121 c -0.288,-0.1199 -0.624,-0.216 -1.008,-0.2879" /><path
       inkscape:connector-curvature="0"
       id="path3754"
       style="fill:#000000;fill-opacity:1;fill-rule:nonzero;stroke:none"
       d="m 649.65,106.036 -2.557,0 c -0.912,0 -1.872,-0.054 -2.88,-0.162 -1.008,-0.109 -1.932,-0.33 -2.772,-0.666 -0.839,-0.336 -1.53,-0.817 -2.07,-1.441 -0.539,-0.624 -0.81,-1.463 -0.81,-2.519 0,-0.769 0.15,-1.4097 0.45,-1.9257 0.3,-0.5161 0.684,-0.9313 1.152,-1.2422 0.468,-0.3129 0.984,-0.5399 1.549,-0.684 0.563,-0.1441 1.097,-0.216 1.601,-0.216 1.225,0 2.244,0.2281 3.062,0.684 0.814,0.455 1.468,1.0371 1.961,1.7461 0.491,0.7068 0.834,1.4878 1.025,2.3398 0.193,0.852 0.289,1.686 0.289,2.502 l 0,1.584 z m 0.791,-5.292 c 0,-0.625 0.03,-1.2897 0.09,-1.9979 0.06,-0.7078 0.126,-1.2899 0.198,-1.7461 l -0.756,0 c -0.048,0.2391 -0.084,0.534 -0.107,0.882 -0.025,0.3473 -0.055,0.7082 -0.091,1.0801 -0.036,0.3719 -0.059,0.7379 -0.071,1.0969 -0.013,0.361 -0.018,0.661 -0.018,0.901 l -0.109,0 c -0.48,-1.512 -1.307,-2.6338 -2.484,-3.3659 -1.175,-0.732 -2.436,-1.098 -3.78,-1.098 -0.672,0 -1.338,0.0961 -1.997,0.2879 -0.661,0.1922 -1.255,0.4801 -1.782,0.864 -0.53,0.3832 -0.955,0.875 -1.279,1.4762 -0.324,0.6 -0.485,1.3078 -0.485,2.1238 0,1.176 0.305,2.124 0.918,2.844 0.612,0.719 1.373,1.278 2.285,1.673 0.913,0.397 1.89,0.655 2.934,0.775 1.045,0.12 1.998,0.18 2.863,0.18 l 2.88,0 0,1.332 c 0,1.847 -0.493,3.198 -1.477,4.049 -0.984,0.853 -2.268,1.279 -3.852,1.279 -0.983,0 -1.901,-0.18 -2.753,-0.54 -0.852,-0.36 -1.614,-0.84 -2.287,-1.44 l -0.431,0.612 c 0.768,0.671 1.638,1.181 2.611,1.53 0.97,0.348 1.925,0.522 2.86,0.522 1.895,0 3.39,-0.486 4.483,-1.458 1.091,-0.972 1.637,-2.503 1.637,-4.591" /><path
       inkscape:connector-curvature="0"
       id="path3756"
       style="fill:#000000;fill-opacity:1;fill-rule:nonzero;stroke:none"
       d="m 694.254,106.144 c -0.024,1.079 -0.211,2.063 -0.559,2.952 -0.347,0.888 -0.822,1.65 -1.421,2.286 -0.6,0.636 -1.321,1.128 -2.161,1.477 -0.839,0.346 -1.776,0.521 -2.807,0.521 -1.248,0 -2.317,-0.257 -3.204,-0.773 -0.888,-0.518 -1.615,-1.152 -2.178,-1.909 -0.565,-0.755 -0.979,-1.547 -1.242,-2.375 -0.265,-0.828 -0.397,-1.555 -0.397,-2.179 l 13.969,0 z M 680.25,105.46 c 0,-1.007 0.15,-2.005 0.449,-2.989 0.3,-0.983 0.757,-1.866 1.368,-2.6444 0.613,-0.7809 1.386,-1.411 2.323,-1.8911 0.935,-0.48 2.04,-0.7199 3.311,-0.7199 1.297,0 2.449,0.2578 3.456,0.775 1.009,0.5149 1.884,1.2649 2.628,2.2504 l 0.576,-0.5043 c -0.816,-1.057 -1.769,-1.8609 -2.861,-2.4121 -1.093,-0.5519 -2.358,-0.8281 -3.799,-0.8281 -1.223,0 -2.34,0.2211 -3.347,0.666 -1.008,0.443 -1.878,1.0609 -2.611,1.8531 -0.732,0.7918 -1.296,1.7394 -1.691,2.8454 -0.397,1.103 -0.594,2.303 -0.594,3.599 0,1.247 0.204,2.4 0.612,3.456 0.41,1.055 0.969,1.968 1.679,2.737 0.71,0.767 1.545,1.361 2.508,1.781 0.962,0.42 1.996,0.63 3.102,0.63 1.299,0 2.43,-0.228 3.392,-0.684 0.962,-0.457 1.763,-1.057 2.4,-1.8 0.637,-0.744 1.113,-1.589 1.425,-2.538 0.314,-0.948 0.47,-1.914 0.47,-2.898 l 0,-0.684" /><path
       inkscape:connector-curvature="0"
       id="path3758"
       style="fill:#000000;fill-opacity:1;fill-rule:nonzero;stroke:none"
       d="m 710.094,111.256 c 0.455,0.6 0.972,1.11 1.548,1.53 0.576,0.42 1.199,0.739 1.872,0.954 0.671,0.216 1.368,0.325 2.088,0.325 1.151,0 2.111,-0.205 2.88,-0.613 0.767,-0.408 1.38,-0.948 1.836,-1.62 0.456,-0.672 0.779,-1.428 0.971,-2.267 0.193,-0.841 0.288,-1.693 0.288,-2.557 l 0,-10.008 -0.792,0 0,9.936 c 0,0.672 -0.071,1.391 -0.215,2.16 -0.144,0.768 -0.414,1.464 -0.81,2.088 -0.396,0.624 -0.931,1.146 -1.603,1.566 -0.671,0.42 -1.524,0.63 -2.555,0.63 -0.912,0 -1.771,-0.187 -2.574,-0.558 -0.805,-0.373 -1.5,-0.906 -2.088,-1.602 -0.589,-0.696 -1.057,-1.542 -1.405,-2.538 -0.347,-0.996 -0.521,-2.13 -0.521,-3.402 l 0,-8.28 -0.792,0 0,12.384 c 0,0.264 -0.007,0.588 -0.019,0.973 -0.011,0.382 -0.023,0.773 -0.036,1.17 -0.011,0.395 -0.03,0.773 -0.053,1.133 -0.025,0.36 -0.048,0.659 -0.073,0.9 l 0.792,0 c 0.025,-0.241 0.042,-0.54 0.055,-0.9 0.012,-0.36 0.023,-0.751 0.036,-1.17 0.012,-0.421 0.024,-0.828 0.035,-1.224 0.013,-0.396 0.019,-0.75 0.019,-1.062 l 0.072,0 c 0.239,0.768 0.588,1.452 1.044,2.052" /><path
       inkscape:connector-curvature="0"
       id="path3760"
       style="fill:#000000;fill-opacity:1;fill-rule:nonzero;stroke:none"
       d="m 752.105,97 0.7918,0 0,27.216 -0.7918,0 0,-27.216 z" /><path
       inkscape:connector-curvature="0"
       id="path3762"
       style="fill:#000000;fill-opacity:1;fill-rule:nonzero;stroke:none"
       d="m 778.025,106.036 -2.555,0 c -0.913,0 -1.873,-0.054 -2.881,-0.162 -1.008,-0.109 -1.932,-0.33 -2.771,-0.666 -0.841,-0.336 -1.53,-0.817 -2.071,-1.441 -0.538,-0.624 -0.809,-1.463 -0.809,-2.519 0,-0.769 0.15,-1.4097 0.45,-1.9257 0.3,-0.5161 0.683,-0.9313 1.151,-1.2422 0.468,-0.3129 0.984,-0.5399 1.549,-0.684 0.564,-0.1441 1.098,-0.216 1.601,-0.216 1.224,0 2.245,0.2281 3.061,0.684 0.815,0.455 1.47,1.0371 1.962,1.7461 0.492,0.7068 0.833,1.4878 1.026,2.3398 0.191,0.852 0.287,1.686 0.287,2.502 l 0,1.584 z m 0.793,-5.292 c 0,-0.625 0.029,-1.2897 0.089,-1.9979 0.059,-0.7078 0.127,-1.2899 0.198,-1.7461 l -0.755,0 c -0.05,0.2391 -0.085,0.534 -0.109,0.882 -0.023,0.3473 -0.053,0.7082 -0.089,1.0801 -0.037,0.3719 -0.061,0.7379 -0.073,1.0969 -0.011,0.361 -0.018,0.661 -0.018,0.901 l -0.107,0 c -0.481,-1.512 -1.309,-2.6338 -2.484,-3.3659 -1.177,-0.732 -2.436,-1.098 -3.781,-1.098 -0.671,0 -1.337,0.0961 -1.998,0.2879 -0.66,0.1922 -1.253,0.4801 -1.782,0.864 -0.529,0.3832 -0.954,0.875 -1.278,1.4762 -0.324,0.6 -0.486,1.3078 -0.486,2.1238 0,1.176 0.307,2.124 0.918,2.844 0.612,0.719 1.375,1.278 2.287,1.673 0.911,0.397 1.889,0.655 2.934,0.775 1.043,0.12 1.997,0.18 2.861,0.18 l 2.88,0 0,1.332 c 0,1.847 -0.491,3.198 -1.475,4.049 -0.985,0.853 -2.269,1.279 -3.853,1.279 -0.984,0 -1.902,-0.18 -2.754,-0.54 -0.852,-0.36 -1.614,-0.84 -2.286,-1.44 l -0.432,0.612 c 0.768,0.671 1.638,1.181 2.611,1.53 0.971,0.348 1.925,0.522 2.861,0.522 1.896,0 3.391,-0.486 4.482,-1.458 1.092,-0.972 1.639,-2.503 1.639,-4.591" /><path
       inkscape:connector-curvature="0"
       id="path3764"
       style="fill:#000000;fill-opacity:1;fill-rule:nonzero;stroke:none"
       d="m 828.605,97 -18.289,24.48 -0.107,0 0,-24.48 -0.791,0 0,25.488 1.114,0 18.325,-24.4439 0.107,0 0,24.4439 0.793,0 0,-25.488" /><path
       inkscape:connector-curvature="0"
       id="path3766"
       style="fill:#000000;fill-opacity:1;fill-rule:nonzero;stroke:none"
       d="m 855.622,99.2859 c -0.444,-0.6117 -0.953,-1.1218 -1.529,-1.5297 -0.576,-0.4082 -1.201,-0.7203 -1.872,-0.9363 -0.673,-0.2168 -1.369,-0.3238 -2.088,-0.3238 -1.153,0 -2.113,0.2039 -2.88,0.6121 -0.769,0.407 -1.381,0.948 -1.837,1.6188 -0.456,0.6722 -0.779,1.428 -0.972,2.269 -0.192,0.84 -0.288,1.692 -0.288,2.556 l 0,10.007 0.792,0 0,-9.935 c 0,-0.696 0.072,-1.422 0.216,-2.178 0.145,-0.756 0.414,-1.446 0.811,-2.0698 0.395,-0.6242 0.923,-1.1469 1.584,-1.5672 0.66,-0.4188 1.517,-0.6289 2.574,-0.6289 0.911,0 1.769,0.1851 2.573,0.5582 0.805,0.3707 1.5,0.9047 2.089,1.6019 0.587,0.6958 1.056,1.5418 1.403,2.5378 0.348,0.996 0.523,2.13 0.523,3.402 l 0,8.279 0.792,0 0,-12.383 c 0,-0.264 0.005,-0.588 0.017,-0.972 0.012,-0.3849 0.024,-0.7739 0.036,-1.17 0.012,-0.3957 0.031,-0.7738 0.054,-1.134 0.024,-0.3598 0.048,-0.6609 0.072,-0.9 l -0.792,0 c -0.024,0.2391 -0.042,0.5402 -0.053,0.9 -0.013,0.3602 -0.025,0.7492 -0.037,1.1699 -0.012,0.4192 -0.024,0.8281 -0.036,1.2241 -0.012,0.396 -0.017,0.75 -0.017,1.062 l -0.073,0 c -0.264,-0.768 -0.618,-1.458 -1.062,-2.0701" /><path
       inkscape:connector-curvature="0"
       id="path3768"
       style="fill:#000000;fill-opacity:1;fill-rule:nonzero;stroke:none"
       d="m 888.076,105.244 c 0,1.08 -0.174,2.111 -0.521,3.096 -0.347,0.984 -0.844,1.847 -1.49,2.591 -0.646,0.745 -1.43,1.338 -2.352,1.783 -0.922,0.444 -1.958,0.666 -3.107,0.666 -1.101,0 -2.113,-0.216 -3.035,-0.648 -0.922,-0.432 -1.718,-1.014 -2.388,-1.746 -0.67,-0.732 -1.198,-1.591 -1.581,-2.574 -0.382,-0.984 -0.574,-2.028 -0.574,-3.132 0,-1.104 0.192,-2.148 0.574,-3.132 0.383,-0.984 0.911,-1.842 1.581,-2.5738 0.67,-0.732 1.466,-1.314 2.388,-1.7461 0.922,-0.432 1.934,-0.648 3.035,-0.648 1.149,0 2.185,0.216 3.107,0.648 0.922,0.4321 1.706,1.0141 2.352,1.7461 0.646,0.7318 1.143,1.5898 1.49,2.5738 0.347,0.984 0.521,2.016 0.521,3.096 m -14.903,3.815 c 0.717,1.657 1.741,2.905 3.07,3.745 1.328,0.839 2.784,1.26 4.364,1.26 1.221,0 2.34,-0.222 3.359,-0.666 1.017,-0.444 1.891,-1.056 2.622,-1.837 0.729,-0.779 1.293,-1.71 1.687,-2.789 0.396,-1.08 0.593,-2.257 0.593,-3.528 0,-1.248 -0.203,-2.406 -0.61,-3.475 -0.408,-1.067 -0.977,-1.992 -1.706,-2.771 -0.731,-0.78 -1.605,-1.3929 -2.622,-1.8359 -1.019,-0.4441 -2.125,-0.666 -3.323,-0.666 -0.79,0 -1.562,0.107 -2.316,0.3238 -0.755,0.216 -1.455,0.5332 -2.102,0.9543 -0.646,0.4188 -1.233,0.936 -1.759,1.5481 -0.528,0.6109 -0.947,1.3247 -1.257,2.1417 l -0.109,0 0,-4.464 -0.828,0 0,27.216 0.828,0 0,-15.157" /><path
       inkscape:connector-curvature="0"
       id="path3770"
       style="fill:#000000;fill-opacity:1;fill-rule:nonzero;stroke:none"
       d="m 915.328,106.144 c -0.024,1.079 -0.211,2.063 -0.559,2.952 -0.347,0.888 -0.822,1.65 -1.421,2.286 -0.6,0.636 -1.321,1.128 -2.161,1.477 -0.839,0.346 -1.776,0.521 -2.807,0.521 -1.248,0 -2.317,-0.257 -3.204,-0.773 -0.888,-0.518 -1.615,-1.152 -2.178,-1.909 -0.565,-0.755 -0.979,-1.547 -1.242,-2.375 -0.265,-0.828 -0.397,-1.555 -0.397,-2.179 l 13.969,0 z m -14.004,-0.684 c 0,-1.007 0.15,-2.005 0.449,-2.989 0.3,-0.983 0.757,-1.866 1.368,-2.6444 0.613,-0.7809 1.386,-1.411 2.323,-1.8911 0.935,-0.48 2.04,-0.7199 3.311,-0.7199 1.297,0 2.449,0.2578 3.456,0.775 1.009,0.5149 1.884,1.2649 2.628,2.2504 l 0.576,-0.5043 c -0.816,-1.057 -1.769,-1.8609 -2.861,-2.4121 -1.093,-0.5519 -2.358,-0.8281 -3.799,-0.8281 -1.223,0 -2.34,0.2211 -3.347,0.666 -1.008,0.443 -1.878,1.0609 -2.611,1.8531 -0.732,0.7918 -1.296,1.7394 -1.691,2.8454 -0.397,1.103 -0.594,2.303 -0.594,3.599 0,1.247 0.204,2.4 0.612,3.456 0.41,1.055 0.969,1.968 1.679,2.737 0.71,0.767 1.545,1.361 2.508,1.781 0.962,0.42 1.996,0.63 3.102,0.63 1.299,0 2.43,-0.228 3.392,-0.684 0.962,-0.457 1.763,-1.057 2.4,-1.8 0.637,-0.744 1.113,-1.589 1.425,-2.538 0.314,-0.948 0.47,-1.914 0.47,-2.898 l 0,-0.684" /></g></svg>